<svg height="32" viewBox="0 0 40 32" width="40" xmlns="http://www.w3.org/2000/svg"><path d="m18 3.60655738c-1.8876404 1.04918032-3.4382022 1.96721311-4.5842697 2.75409836-1.1460674.78688524-2.3595505 1.7704918-3.57303367 3.01639344-1.14606742 1.18032782-2.02247191 2.42622952-2.62921348 3.73770492-.60674158 1.3114754-1.01123596 2.9508197-1.28089888 4.9836066h2.8988764c2.49438203 0 4.51685393.5901639 5.93258423 1.7704918 1.4157304 1.1803278 2.1573034 2.9508196 2.1573034 5.3114754 0 1.6393442-.6067416 3.2131147-1.8876404 4.6557377-1.2808989 1.4426229-3.0337079 2.1639344-5.258427 2.1639344-3.50561798 0-6-1.1147541-7.48314607-3.3442623-1.5505618-2.2295082-2.29213483-5.1803279-2.29213483-8.7868852 0-2.5573771.53932584-4.8524591 1.68539326-7.0163935 1.14606741-2.0983606 2.49438202-3.99999998 4.11235955-5.63934425 1.68539326-1.70491803 3.43820225-3.14754098 5.25842699-4.32786885 1.8876404-1.18032787 3.4382022-2.16393442 4.6516854-2.8852459zm22 0c-1.9018868 1.04918032-3.4641509 1.96721311-4.6188679 2.75409836-1.154717.78688524-2.3773585 1.7704918-3.6 3.01639344-1.154717 1.24590162-2.0377359 2.49180332-2.6490566 3.73770492-.6113208 1.2459016-1.018868 2.9508197-1.2226415 4.9836066h2.9207547c2.5132075 0 4.5509434.5901639 5.9773585 1.7704918 1.4264151 1.1803278 2.1735849 2.9508196 2.1735849 5.3114754 0 1.6393442-.6113208 3.2131147-1.9018868 4.6557377-1.2905661 1.4426229-3.0566038 2.1639344-5.2981132 2.1639344-3.5320755 0-6.045283-1.1147541-7.5396227-3.3442623-1.4943396-2.2295082-2.2415094-5.1147541-2.2415094-8.7868852 0-2.5573771.5433962-4.8524591 1.6981132-7.0163935 1.154717-2.0983606 2.5132076-3.99999998 4.1433962-5.63934425 1.6981132-1.70491803 3.464151-3.14754098 5.2981132-4.32786885 1.9018868-1.18032787 3.464151-2.16393442 4.6867925-2.8852459z"/></svg>