<?xml version="1.0" encoding="UTF-8"?>
<svg width="40px" height="32px" viewBox="0 0 40 32" version="1.1" xmlns="http://www.w3.org/2000/svg" xmlns:xlink="http://www.w3.org/1999/xlink">
    <!-- Generator: Sketch 52.6 (67491) - http://www.bohemiancoding.com/sketch -->
    <title>Shape</title>
    <desc>Created with Sketch.</desc>
    <g id="2018" stroke="none" stroke-width="1" fill="none" fill-rule="evenodd">
        <g id="Dude-Perfect" transform="translate(-780.000000, -2260.000000)" fill="#000000" fill-rule="nonzero">
            <g id="#-Content" transform="translate(0.000000, 1811.000000)">
                <g id="#-Quote" transform="translate(323.000000, 449.000000)">
                    <g id="quote" transform="translate(457.000000, 0.000000)">
                        <path d="M18,3.60655738 C16.1123596,4.6557377 14.5617978,5.57377049 13.4157303,6.36065574 C12.2696629,7.14754098 11.0561798,8.13114754 9.84269663,9.37704918 C8.69662921,10.557377 7.82022472,11.8032787 7.21348315,13.1147541 C6.60674157,14.4262295 6.20224719,16.0655738 5.93258427,18.0983607 L8.83146067,18.0983607 C11.3258427,18.0983607 13.3483146,18.6885246 14.7640449,19.8688525 C16.1797753,21.0491803 16.9213483,22.8196721 16.9213483,25.1803279 C16.9213483,26.8196721 16.3146067,28.3934426 15.0337079,29.8360656 C13.752809,31.2786885 12,32 9.7752809,32 C6.26966292,32 3.7752809,30.8852459 2.29213483,28.6557377 C0.741573034,26.4262295 0,23.4754098 0,19.8688525 C0,17.3114754 0.539325843,15.0163934 1.68539326,12.852459 C2.83146067,10.7540984 4.17977528,8.85245902 5.79775281,7.21311475 C7.48314607,5.50819672 9.23595506,4.06557377 11.0561798,2.8852459 C12.9438202,1.70491803 14.494382,0.721311475 15.7078652,3.55271368e-15 L18,3.60655738 Z M40,3.60655738 C38.0981132,4.6557377 36.5358491,5.57377049 35.3811321,6.36065574 C34.2264151,7.14754098 33.0037736,8.13114754 31.7811321,9.37704918 C30.6264151,10.6229508 29.7433962,11.8688525 29.1320755,13.1147541 C28.5207547,14.3606557 28.1132075,16.0655738 27.909434,18.0983607 L30.8301887,18.0983607 C33.3433962,18.0983607 35.3811321,18.6885246 36.8075472,19.8688525 C38.2339623,21.0491803 38.9811321,22.8196721 38.9811321,25.1803279 C38.9811321,26.8196721 38.3698113,28.3934426 37.0792453,29.8360656 C35.7886792,31.2786885 34.0226415,32 31.7811321,32 C28.2490566,32 25.7358491,30.8852459 24.2415094,28.6557377 C22.7471698,26.4262295 22,23.5409836 22,19.8688525 C22,17.3114754 22.5433962,15.0163934 23.6981132,12.852459 C24.8528302,10.7540984 26.2113208,8.85245902 27.8415094,7.21311475 C29.5396226,5.50819672 31.3056604,4.06557377 33.1396226,2.8852459 C35.0415094,1.70491803 36.6037736,0.721311475 37.8264151,0 L40,3.60655738 Z" id="Shape"></path>
                    </g>
                </g>
            </g>
        </g>
    </g>
</svg>