<?xml version="1.0" encoding="UTF-8"?>
<svg width="44px" height="44px" viewBox="0 0 44 44" version="1.1" xmlns="http://www.w3.org/2000/svg" xmlns:xlink="http://www.w3.org/1999/xlink">
    <!-- Generator: Sketch 49.1 (51147) - http://www.bohemiancoding.com/sketch -->
    <title>wordpress-logo</title>
    <desc>Created with Sketch.</desc>
    <defs></defs>
    <g id="Screens" stroke="none" stroke-width="1" fill="none" fill-rule="evenodd">
        <g id="Services" transform="translate(-1292.000000, -1245.000000)" fill="#FFFFFF" fill-rule="nonzero">
            <g id="cards" transform="translate(160.000000, 1060.000000)">
                <g id="Group-2" transform="translate(1008.000000, 115.000000)">
                    <g id="wordpress-logo" transform="translate(124.000000, 70.000000)">
                        <path d="M3.23858333,22.0238333 C3.23858333,29.4589167 7.55975,35.8856667 13.8260833,38.9299167 L4.86475,14.3779167 C3.79065892,16.7833921 3.23651993,19.3885326 3.23858333,22.0229167" id="Fill-1"></path>
                        <path d="M34.705,21.076 C34.705,18.7540833 33.8708333,17.14625 33.15675,15.895 C32.20525,14.34675 31.3115,13.03775 31.3115,11.4895 C31.3115,9.7625 32.6214167,8.15558333 34.4666667,8.15558333 C34.5491667,8.15558333 34.6289167,8.16475 34.7095833,8.17025 C31.249787,4.99253965 26.7214915,3.23213574 22.0238333,3.23858333 C15.4605,3.23858333 9.68733333,6.6055 6.32866667,11.7049167 C6.76866667,11.7195833 7.18483333,11.7278333 7.53683333,11.7278333 C9.50216667,11.7278333 12.5436667,11.4895 12.5436667,11.4895 C13.5565833,11.4299167 13.67575,12.9176667 12.6646667,13.03775 C12.6646667,13.03775 11.64625,13.1569167 10.5141667,13.2155833 L17.3543333,33.5646667 L21.4665,21.2355 L18.5395833,13.2155833 C17.5275833,13.156 16.56875,13.03775 16.56875,13.03775 C15.55675,12.97725 15.6759167,11.4299167 16.6879167,11.4885833 C16.6879167,11.4885833 19.7908333,11.7278333 21.6360833,11.7278333 C23.6005,11.7278333 26.6429167,11.4895 26.6429167,11.4895 C27.6558333,11.4299167 27.775,12.9176667 26.763,13.03775 C26.763,13.03775 25.7436667,13.1569167 24.6134167,13.2155833 L31.40225,33.40975 L33.2759167,27.1489167 C34.0871667,24.54925 34.7059167,22.6838333 34.7059167,21.076" id="Fill-3"></path>
                        <path d="M22.3538333,23.6665 L16.7163333,40.0455 C20.5010414,41.160959 24.5409336,41.0560809 28.2626667,39.74575 C28.210657,39.6634705 28.1655848,39.5770054 28.1279167,39.48725 L22.3538333,23.6665 Z" id="Fill-5"></path>
                        <path d="M38.5091667,13.0111667 C38.5889167,13.60975 38.63475,14.2514167 38.63475,14.9435 C38.63475,16.8483333 38.27725,18.9915 37.2065833,21.6718333 L31.46825,38.26075 C37.0535,35.00475 40.8090833,28.9538333 40.8090833,22.0238333 C40.8090833,18.75775 39.9749167,15.6869167 38.50825,13.0111667" id="Fill-7"></path>
                        <path d="M22.0238333,42.9183333 C10.5031667,42.9183333 1.13025,33.5445 1.13025,22.0238333 C1.13025,10.5031667 10.5031667,1.13025 22.0238333,1.13025 C33.5454167,1.13025 42.9183333,10.5031667 42.9183333,22.0238333 C42.9183333,33.5445 33.5454167,42.9183333 22.0238333,42.9183333 M22.0238333,0.124666667 C9.9495,0.125583333 0.125583333,9.94858333 0.125583333,22.0238333 C0.125583333,34.0990833 9.9495,43.923 22.02475,43.923 C34.0990833,43.923 43.923,34.0990833 43.923,22.0238333 C43.923,9.94858333 34.0990833,0.125583333 22.0238333,0.125583333" id="Fill-9"></path>
                    </g>
                </g>
            </g>
        </g>
    </g>
</svg>