<svg height="44" viewBox="0 0 44 44" width="44" xmlns="http://www.w3.org/2000/svg"><g fill="#000" transform=""><path d="m3.23858333 22.0238333c0 7.4350834 4.32116667 13.8618334 10.58749997 16.9060834l-8.9613333-24.552c-1.07409108 2.4054754-1.62823007 5.0106159-1.62616667 7.645"/><path d="m34.705 21.076c0-2.3219167-.8341667-3.92975-1.54825-5.181-.9515-1.54825-1.84525-2.85725-1.84525-4.4055 0-1.727 1.3099167-3.33391667 3.1551667-3.33391667.0825 0 .16225.00916667.2429166.01466667-3.4597963-3.17771035-7.9880918-4.93811426-12.68575-4.93166667-6.5633333 0-12.33649997 3.36691667-15.69516663 8.46633337.44.0146666.85616666.0229166 1.20816666.0229166 1.96533334 0 5.00683337-.2383333 5.00683337-.2383333 1.0129166-.0595833 1.1320833 1.4281667.121 1.54825 0 0-1.0184167.1191667-2.1505.1778333l6.8401666 20.3490834 4.1121667-12.3291667-2.9269167-8.0199167c-1.012-.0595833-1.9708333-.1778333-1.9708333-.1778333-1.012-.0605-.8928333-1.6078333.1191667-1.5491667 0 0 3.1029166.23925 4.9481666.23925 1.9644167 0 5.0068334-.2383333 5.0068334-.2383333 1.0129166-.0595833 1.1320833 1.4281667.1200833 1.54825 0 0-1.0193333.1191667-2.1495833.1778333l6.7888333 20.1941667 1.8736667-6.2608333c.81125-2.5996667 1.43-4.4650834 1.43-6.0729167"/><path d="m22.3538333 23.6665-5.6375 16.379c3.7847081 1.115459 7.8246003 1.0105809 11.5463334-.29975-.0520097-.0822795-.0970819-.1687446-.13475-.2585z"/><path d="m38.5091667 13.0111667c.07975.5985833.1255833 1.24025.1255833 1.9323333 0 1.9048333-.3575 4.048-1.4281667 6.7283333l-5.7383333 16.5889167c5.58525-3.256 9.3408333-9.3069167 9.3408333-16.2369167 0-3.2660833-.8341666-6.3369166-2.3008333-9.0126666"/><path d="m22.0238333 42.9183333c-11.5206666 0-20.8935833-9.3738333-20.8935833-20.8945 0-11.5206666 9.3729167-20.8935833 20.8935833-20.8935833 11.5215834 0 20.8945 9.3729167 20.8945 20.8935833 0 11.5206667-9.3729166 20.8945-20.8945 20.8945m0-42.79366663c-12.0743333.00091666-21.89824997 9.82391666-21.89824997 21.89916663 0 12.07525 9.82391667 21.8991667 21.89916667 21.8991667 12.0743333 0 21.89825-9.8239167 21.89825-21.8991667 0-12.07524997-9.8239167-21.89824997-21.8991667-21.89824997"/></g></svg>
