<svg height="57" viewBox="0 0 45 57" width="45" xmlns="http://www.w3.org/2000/svg"><g fill="none" fill-rule="evenodd"><path d="m45 0v33.4137931c-2.3889501 6.4563078-11.0904586 15.8606633-22.6490385 23.5862069-10.5593665-7.7255436-19.96266698-17.1298991-22.3509615-23.5862069v-33.4137931z" fill="#fff"/><path d="m1.24395848 15.6338364h42.19281822v-14.39245709h-42.19281822zm40.73731102 16.7664951s-.6577431 1.1475529-1.542872 1.1475529h-10.2899045c-2.691283 0-3.7611712-1.0280986-4.9574876-1.8704822l-1.7451834-1.270703c-.267637-.2107939-.3689907-.499728-.3689907-.8407996v-2.8304721c0-2.2565637 2.2976137-2.8889454 3.2206183-3.0912916l15.6838199-2.9851687s-.3600167 1.2448322-1.1911696 1.6930827l-7.2991795 3.6490968c-1.0213229.5077796-1.9894616.7993536-3.7380762.7993536h-3.2724829c-1.0102374 0-1.3994196 0-1.3982319.3294562zm-20.3778935-2.8344319c0 .3410716-.1014856.6300057-.3683308.8407996l-1.7455794 1.270703c-1.1965803.8423836-2.2666005 1.8704822-4.9573555 1.8704822h-10.29016847c-.88539289 0-1.54339989-1.1475529-1.54339989-1.1475529l16.89966796-5.270375c.0007918-.3294562-.3870707-.3294562-1.397836-.3294562h-3.2731427c-1.7486147 0-2.7170173-.291574-3.7376804-.7993536l-7.29931147-3.6490968c-.83102087-.4482505-1.19169739-1.6930827-1.19169739-1.6930827l15.68408376 2.9851687c.9234006.2023462 3.2207503.8347279 3.2207503 3.0912916zm4.3126776-12.3803457-3.3040239 1.8892253c.5010936.6202382 1.6634935 2.1381654 1.9521139 2.646737.0989781.1748916.1745975.3583628.1970325.5316704.0537122.4091804-.2023114.7544758-1.2211269.7544758h-2.3993632c-1.0190795 0-1.2751031-.3452954-1.2217868-.7544758.0221711-.1733076.0980544-.3567788.1970326-.5316704.2887524-.5085716 1.4510202-2.0264988 1.9519818-2.646737l-3.303364-1.8892253h-17.52045915v15.8886053c2.94440316 7.9828447 13.97915155 17.5426178 20.86117095 22.5371261-.2598507-.7848344-.6997098-2.4653777-.8141286-5.0961434-.1119113-2.5424619-.1328947-8.3876693-.1328947-11.8596307 0-.6438651.0056747-1.1509847-.5842353-1.6598203-.2207873-.1909948-.2020474-.4436307-.2020474-.4436307l.9036048-.6280258c.1241847-.0861919.1255044-.2693991.0022435-.3567789l-1.3170697-.8187567c-.4209872-.2792986-.4315449-.7245132-.4315449-.7245132l2.8105846-2.4498024 2.8111126 2.4498024s-.0098979.4452146-.431281.7245132c-.3712342.2444523-.9817317.5803761-1.3173337.8187567-.1231289.0873798-.1214133.270587.0025074.3567789l.9025492.6280258s.0201915.2526359-.2008598.4436307c-.5907018.5088356-.5841033 1.0159552-.5841033 1.6598203 0 3.4719614-.0215112 9.3171688-.1331586 11.8596307-.1150787 2.6307657-.5545418 4.311309-.8143926 5.0961434 6.8817555-4.9945083 17.9172957-14.5542814 20.8619628-22.5371261v-15.8886053zm-14.8056325-10.38817851.0014516-.48705662c0-.36258659-.6528601-.770579-1.47767833-.770579h-1.41393642v1.88130568h1.68685228c.50307317 0 .95151037-.18413116 1.20331087-.62367006zm-1.1205651 2.20746203h-1.76959805v1.97805708h1.7112669c.92973515 0 1.33066275-.5104195 1.33066275-.770447v-.55648533c-.2240866-.40970834-.7131708-.65112475-1.2723316-.65112475zm3.5406478 1.54036608c-.0011878 1.3219165-1.4252859 2.3056653-2.7344375 2.3713981h-5.16798113v-4.7612754c0-.67752347.2368878-.88673343.53870529-1.18530309l1.43571162-1.43028334h-1.58853394c-.52286878 0-.67859446-.15020879-.89700633-.43439115l-.95375383-1.4956202h6.53440802c1.3202371 0 2.6813852.96460969 2.6813852 2.27504278v1.12630193c-.2235588.3937371-.6458657.86403053-1.0508845 1.09198358.4050188.19719854.8947629.56110507 1.2023871 1.10716285zm9.0060914-5.00546373h-4.7436947v1.88130568h4.1035037v1.73518871h-4.1035037v1.82666034h4.7436947v1.9337071h-7.2071958v-7.96383766c0-.23600467.0869688-.4643537.2478413-.6373974.2017836-.21792154.481166-.48058893.7751972-.70563812h6.1841573zm4.3636184-1.93001135v7.37316608h4.5925879v1.9337071h-7.0645352v-7.96383766c0-.23600467.0877607-.4643537.2482373-.6373974.2016516-.21792154.480902-.48058893.7749332-.70563812zm8.8431073 0v7.37316608h4.5931158v1.9337071h-7.0649311v-7.96383766c0-.23600467.0874967-.4643537.2470495-.6373974.2028393-.21792154.481166-.48058893.776253-.70563812z" fill="#bc0134"/></g></svg>