<?xml version="1.0" encoding="UTF-8"?>
<svg width="68px" height="60px" viewBox="0 0 68 60" version="1.1" xmlns="http://www.w3.org/2000/svg" xmlns:xlink="http://www.w3.org/1999/xlink">
    <!-- Generator: Sketch 49.2 (51160) - http://www.bohemiancoding.com/sketch -->
    <title>dude-perfect-icon</title>
    <desc>Created with Sketch.</desc>
    <defs></defs>
    <g id="dude-perfect-icon" stroke="none" stroke-width="1" fill="none" fill-rule="evenodd" fill-opacity="0.799999952">
        <path d="M16.1619381,19.6481989 L18.3376536,19.0697636 C16.192582,22.7230396 13.0669062,27.4418544 13.5572083,29.3902683 C13.7104277,30.0295916 14.2620175,30.7906908 15.9167871,30.7906908 C16.958679,30.7906908 17.9699271,30.4862511 18.0005709,30.4862511 L20.2069303,29.9078158 L25.2325267,4.57843537 L27.4388861,4 L27.4388861,36.087941 L16.8667474,38.858342 C16.8361035,38.858342 13.3427011,39.9238808 10.0025182,39.9238808 C6.35589643,39.9238808 4.33340033,38.7061222 4.02696152,36.3314928 C3.5979472,32.9826564 8.31710477,27.0460829 16.1619381,19.6481989 Z M41.8108659,32.3128891 L39.6351504,32.8913245 C41.8108659,29.2380485 44.9671856,24.5496776 44.4462396,22.6012637 C44.2930202,21.9619404 43.7414304,21.2008413 42.0866608,21.2008413 C41.0447689,21.2008413 40.0335209,21.5052809 40.002877,21.5052809 L37.7965176,22.0837163 L32.7709212,47.3826527 L30.5645619,47.9610881 L30.5645619,15.8731471 L41.1367006,13.1027461 C41.1673444,13.1027461 44.6607468,12.0372072 48.0009297,12.0372072 C51.6475515,12.0372072 53.6700476,13.2549659 53.9764864,15.6295953 C54.3748568,18.9784317 49.6863432,24.8845612 41.8108659,32.3128891 Z" id="Combined-Shape" fill="#000000" fill-rule="nonzero"></path>
    </g>
</svg>