<svg height="60" viewBox="0 0 68 60" width="68" xmlns="http://www.w3.org/2000/svg"><path d="m16.1619381 19.6481989 2.1757155-.5784353c-2.1450716 3.653276-5.2707474 8.3720908-4.7804453 10.3205047.1532194.6393233.7048092 1.4004225 2.3595788 1.4004225 1.0418919 0 2.05314-.3044397 2.0837838-.3044397l2.2063594-.5784353 5.0255964-25.32938043 2.2063594-.57843537v32.087941l-10.5721387 2.770401c-.0306439 0-3.5240463 1.0655388-6.8642292 1.0655388-3.64662177 0-5.66911787-1.2177586-5.97555668-3.592388-.42901432-3.3488364 4.29014325-9.2854099 12.13497658-16.6832939zm25.6489278 12.6646902-2.1757155.5784354c2.1757155-3.653276 5.3320352-8.3416469 4.8110892-10.2900608-.1532194-.6393233-.7048092-1.4004224-2.3595788-1.4004224-1.0418919 0-2.0531399.3044396-2.0837838.3044396l-2.2063594.5784354-5.0255964 25.2989364-2.2063593.5784354v-32.087941l10.5721387-2.770401c.0306438 0 3.5240462-1.0655389 6.8642291-1.0655389 3.6466218 0 5.6691179 1.2177587 5.9755567 3.5923881.3983704 3.3488364-4.2901432 9.2549659-12.1656205 16.6832938z" fill="#fff"/></svg>