<?xml version="1.0" encoding="UTF-8"?>
<svg width="44px" height="39px" viewBox="0 0 44 39" version="1.1" xmlns="http://www.w3.org/2000/svg" xmlns:xlink="http://www.w3.org/1999/xlink">
    <!-- Generator: Sketch 49.1 (51147) - http://www.bohemiancoding.com/sketch -->
    <title>dude-perfect-icon</title>
    <desc>Created with Sketch.</desc>
    <defs></defs>
    <g id="Screens" stroke="none" stroke-width="1" fill="none" fill-rule="evenodd">
        <g id="Dude-Perfect" transform="translate(-268.000000, -338.000000)" fill="#FFFFFF" fill-rule="nonzero">
            <g id="dude-perfect-icon" transform="translate(268.000000, 338.000000)">
                <path d="M10.6512195,13.9862069 C3.78292683,20.522069 -0.348780488,25.7668966 0.0268292683,28.7255172 C0.295121951,30.8234483 2.06585366,31.8993103 5.25853659,31.8993103 C8.18292683,31.8993103 11.2414634,30.957931 11.2682927,30.957931 L20.5243902,28.5103448 L20.5243902,0.16137931 L18.5926829,0.672413793 L14.1926829,23.0503448 L12.2609756,23.5613793 C12.2341463,23.5613793 11.3487805,23.8303448 10.4365854,23.8303448 C8.98780488,23.8303448 8.50487805,23.157931 8.37073171,22.5931034 C7.94146341,20.8717241 10.6780488,16.7027586 12.5560976,13.4751724 L10.6512195,13.9862069 Z" id="Shape"></path>
                <path d="M33.1073171,25.1751724 C40.002439,18.6124138 44.1073171,13.3944828 43.7585366,10.4358621 C43.4902439,8.33793103 41.7195122,7.26206897 38.5268293,7.26206897 C35.602439,7.26206897 32.5439024,8.20344828 32.5170732,8.20344828 L23.2609756,10.6510345 L23.2609756,39 L25.1926829,38.4889655 L29.5926829,16.137931 L31.5243902,15.6268966 C31.5512195,15.6268966 32.4365854,15.357931 33.3487805,15.357931 C34.797561,15.357931 35.2804878,16.0303448 35.4146341,16.5951724 C35.8707317,18.3165517 33.1073171,22.4586207 31.202439,25.6862069 L33.1073171,25.1751724 Z" id="Shape"></path>
            </g>
        </g>
    </g>
</svg>