<svg height="55" viewBox="0 0 42 55" width="42" xmlns="http://www.w3.org/2000/svg" xmlns:xlink="http://www.w3.org/1999/xlink"><linearGradient id="a" x1="58.733183%" x2="24.394796%" y1="5.71077%" y2="99.260388%"><stop offset="0" stop-color="#fff"/><stop offset="1" stop-color="#fff" stop-opacity="0"/></linearGradient><g fill="none" fill-rule="evenodd"><path d="m37.696 21.04c2.026-.6 3.85-2.094 3.85-4.6v-9.316c0 4.6-6.35 6.552-12.294 7.97-6.554 1.554-13.174 6.352-13.174 15.472v23.434c.0042231.3002035.1913326.5673895.472.674 2.096.4 4.6.2 6.216-.066.946-.136 1.824-.812 1.824-2.298v-5.6c0-4.4 1.756-5.81 3.648-6.554 1.486-.6 5.946-2.364 8.444-3.31 2.094-.81 4.73-1.892 4.73-5.134v-6.348s-.2 1.554-2.094 2.364c-2.094.878-2.702 1.08-7.162 2.702-4.8 1.824-7.43.878-7.43-1.96 0-3.782 7.16-5.606 12.97-7.43z" fill="#fff"/><path d="m34.926 10.096c1.216 3.242-3.446 4.4-5.674 5 5.876-1.418 12.294-3.376 12.294-7.97 0-2.298-2.498-7.568-13.714-7.094-9.998.404-27.632 6.216-27.632 29.524v20.672c-.02433465.3045049.13224323.5949568.4.742.878.54 2.77 1.284 6.012 2.298.338.134.744 0 1.082-.2.28704693-.2601162.45718889-.6249121.472-1.012v-21.086c0-7.026.472-11.754 6.08-17.158 7.642-7.364 19.464-6.958 20.68-3.716z" fill="url(#a)" opacity=".8"/></g></svg>