<svg height="34" viewBox="0 0 140 34" width="140" xmlns="http://www.w3.org/2000/svg"><g fill="#fff"><path d="m64.1956525 2.0664531h-.0006777v-.80976206h7.8757531v.81247483l-.1829993.02848409c-2.3552706.35944213-2.3620486.86808664-2.3891592 3.01117551-.003389.24075842-.0067781.49982802-.0135556.77788701v9.44722402c.0067775.2726335.0101666.5317031.0135556.7717833.0271106 2.1444453.0338886 2.6530898 2.3891592 3.0125319l.1823216.0271277v.8117967h-7.8743977v-.8097621l.1796102-.0298405c2.6426476-.4387907 2.640614-.7419428 2.6202809-3.1020533-.0020331-.2122743-.0040667-.4394689-.0040667-.6822619v-3.738198h-8.3590072v3.738198c0 .242793-.0013554.4699876-.003389.6815837-.0196554 2.3607887-.0223667 2.6639408 2.6202809 3.1027315l.1796107.0298405v.8097621h-7.87372v-.8124749l.1816439-.0278059c2.3552706-.3587639 2.3620481-.8680866 2.3891592-3.0118537.003389-.2400802.0067775-.4991498.0135556-.777887v-9.44586767c-.0067781-.27398986-.0101666-.53238122-.0135556-.77313965-.0271111-2.14308887-.0338886-2.65241158-2.3891592-3.0118537l-.1816439-.0278059v-.81179664h7.87372v.80976206l-.1796107.02916229c-2.6426476.43879066-2.6399363.74194279-2.6202809 3.10340971.0020336.21159613.003389.43811245.003389.68158365v4.14714825h8.3590072v-4.14714825c0-.2434712.0020336-.47066571.0040667-.68226184.0196554-2.36078873.0230444-2.66394086-2.6202809-3.10273152zm-36.2630315-.81315303v-.00067819.00339097h7.2901551v.81450941l-.1823217.0271277c-2.3559482.35944213-2.362726.86808664-2.389837 3.01117551-.0020333.24008024-.0061.49982802-.0135555.77788701v9.44451132c.0065585.2585777.0110771.5172032.0135555.7758524.0277888 2.1430889.0345666 2.6517334 2.389837 3.0111755l.1816439.0271277v.8117967h-7.6629317v-.8124749l.1823216-.0271277c2.3545927-.3594421 2.3613705-.8687648 2.3898371-3.0118537.0020333-.2407584.0061-.4991498.0135555-.7785652v-9.44518948c-.0081333-.27398981-.0115222-.53238123-.0135555-.77313965-.0284666-2.14308887-.0352444-2.65173338-2.3898371-3.01117551l-.1491106-.02238035c-2.7477025.53577221-2.7693913 1.53678461-2.812769 4.71343914-.0047444.30247392-.0101666.62393728-.0169444.9630336v13.41668585c.0067778.334349.0115222.6551341.0169444.9582863.0447332 3.241761.0582887 4.2190366 2.9767907 4.7473487l.1762217.0311969v.7561848h-9.5024148v-.753472l.1748661-.0339097c3.2716232-.6436049 3.2682342-1.3767311 3.2519676-4.9006203-.0006777-.2543223-.0020333-.5228866-.0020333-.8050147v-13.42278959c0-.28212816.0006778-.55001424.0020333-.80433653.0162666-3.52456735.0189778-4.25701545-3.2519676-4.9012985l-.1748661-.03390963v-.75279388zm106.418913 2.99489889v.00067819c3.174023 3.12782466 3.648466 7.76869715 3.648466 10.25766425 0 1.9389529-.351088 6.8056636-3.598989 10.108462-2.034682 2.0698441-4.807462 3.1183299-8.243108 3.1183299l-.209432-.0013563-7.974708-.0786704v-.7968764l.176221-.0325532c2.795825-.5255994 2.807347-1.4872766 2.848691-4.674104.004067-.3112904.008133-.6408921.014911-.9915177v-13.26883983c-.078622-3.79787902-.114544-5.15968993-2.740925-5.77006334-1.586672.16412263-2.264448.98134481-2.320026 2.77516445-.090144 2.93250518-.210788 9.44993682-.092855 15.26883002l.002711.1742955-.606609.1593753-.0854-.1152928c-2.500314-3.3773995-5.235139-6.6442536-7.880498-9.8039533-1.198984-1.43302117-2.435247-2.91012485-3.64101-4.38722853v4.33568583c0 .7860253-.007456 1.4974495-.012878 2.1430889-.044055 4.8036388-.052866 5.8032948 2.782269 6.451647l.166733.0379788v.7975546h-12.859438v-.7934855l.1613108-.0420479c.9495636-.2488968 1.4429847-.5567962 1.3223406-1.4757473-.1091221-.8307861-2.7890468-8.85584003-4.3601308-13.48586148-.6309831 1.96252071-1.2500292 3.92886369-1.8571056 5.89891998.4654809.0689678.9335149.1194199 1.4029957.1512369l.3232987.0183112c.5584876.0339097.9617637.0590028 1.233552-.0379787.1789326-.0556119.3924319-.1220748.5083316.046117.1138666.1641227-.0081334.3390964-.1064108.4794823-.2426436.3452-.9536303.8117966-1.3148849.957608-.3029656.1410641-.5266315.1939631-.7231863.2414366-.5578094.133604-1.2796403.1186837-1.9031944.0454389-.817397 2.7154835-1.4775505 5.0627084-1.4775505 5.5476162 0 1.2973826.6838756 1.4072498 1.6300501 1.5605213.0989557.0155985.1992661.0311969.2988995.0495081l.1768994.0311968v.8084058h-16.3181272v-.8131531l.1829998-.0271277c2.3545923-.3594421 2.3613704-.8680866 2.388481-3.0111755.003389-.2407584.006778-.4991498.0135555-.7785652v-9.44722404c-.0067775-.27263349-.0101665-.53170309-.0128773-.77313967-.0277888-2.14308887-.0345669-2.65173338-2.3891592-3.0111755l-.1823221-.02712771v-.81179664h7.6629319v.81179664l-.1823215.02712771c-2.4237261.3702932-2.4203371.91284735-2.4047484 3.19428753.0006777.186503.0020336.38317884.0020336.59002764v8.80904474c0 .7900945 0 3.111548.2744991 3.8385706l2.2231041.0583246c2.9476463-.341131 4.2144093-.7792435 5.7204268-4.0467758l.0487996-.1044417.8946641-2.6747919c-.365999-.0332314-.8268863-.0644283-1.4639954-.098338-2.2414046-.1220746-3.1841901.3743624-3.350923.4747349-.1477552.0908778-.3199102.1797211-.4676654.1797211-.0804701.0023918-.1577046-.0317618-.2101104-.0929124-.1660551-.1926067.0230444-.4462508.093533-.5411977.9183863-1.3014518 2.7998911-2.01016319 5.0446842-1.88673209.3958209.02102394.7096313.04611712.9881971.07527936l2.0699267-6.18308266c.0366-.11936191.0772666-.24347117.1179333-.36486766.1735104-.52492114.3239764-.97863204.1531773-1.31501561l-.1043777-.20549238.2060436-.09630337c.8933088-.41573211 1.5338064-.88097229 1.901839-1.38215668l.2378992-.32349791 5.6255379 16.1186054c.1118329.2644952.2094326.5330595.3022879.7867036.4100542 1.1190179.6872646 1.8670644 2.0170608 2.1878496 2.321381-.3397745 2.298337-1.9328492 2.221071-6.0562607-.014234-.7839907-.031178-1.6731013-.031178-2.6449514v-4.02778639c0-2.61307639-.144366-3.55372964-2.99238-4.2712575l-.1626661-.04069155v-.79552002h4.1872981l.063033.07799216 11.217188 13.5801302-.110478-9.19222353c-.023044-2.48761078-.282633-3.12036455-2.788369-3.62833087l-.172155-.03390963v-.80365833h6.897723v.00135638l6.135903-.13021299c4.190009-.18921576 7.471799.8619829 9.762681 3.12036453zm-88.7242238 6.57914724.0006779-.0006783v-.8138312h7.0082003v.798911l-.166055.038657c-1.253885.2882319-1.2450739.7141369-1.2179629 1.978288.0027111.1858248.0074555.3852135.0074555.5995224v.0006782l-.0189777 5.3333072-.1260663.0576464c-1.9357272.8762249-3.6925218 1.4601489-5.9745924 1.4601489-5.3625611 0-9.1086272-3.8894351-9.1086272-9.4587533 0-2.84162741 1.0451301-5.40858671 2.9429019-7.22953406 1.7859389-1.7144711 4.1581537-2.65715892 6.6794792-2.65715892 1.8110166 0 3.7264106.36690223 5.5374272 1.06137154l.1423329.05425541-.1016664 5.043719h-.68862l-.0338888-.1783647c-.5591649-2.9833696-2.3105373-4.56084578-5.0663731-4.56084578-3.8118103 0-6.2762027 2.93386154-6.2762027 7.47368333 0 5.15901178 3.1760568 8.76224948 7.7239315 8.76224948.9502415 0 1.4490844-.1308912 1.6659726-.4381125.2216326-.3126468.2216326-.883685.2216326-1.6751359v-2.189206c0-2.8965609-.6147425-3.1027315-2.9666241-3.4343677zm-24.4819347.1376731c-.4527542.5893494-1.80085 1.3855476-2.4874367 1.6351225-.580176.242793-.9915858.3302799-1.3894401.4150539-1.4043512.2984048-3.3644784.1492024-4.7295186-.0901996-.5280606-.0906575-1.0596737-.1592147-1.5934506-.2054924v8.4482463c0 .2828063-.0013555.5506925-.0027111.8056929-.0155888 3.523211-.0189777 4.2556591 3.2533232 4.8999421l.1735106.0345879v.7527938h-9.50241483v-.7555066l.17622167-.0318751c2.91850199-.5289903 2.93205755-1.5062659 2.97746848-4.7473487.00474447-.302474.00948889-.6239373.01626661-.9630337v-8.6435657l-.18367719-.0101729c-4.48145269-.242793-6.37583567.6592033-6.70997907.8429935-.39378766.2163435-.64185355.2868755-.80451971.2868755-.14843287 0-.22434375-.0590028-.27246582-.1200401-.19452162-.2482185.08743306-.5934186.20807713-.7405864 1.921494-2.4787942 5.41068314-3.11629535 7.76256466-3.24515199v-1.7877159c-.00745553-.3350272-.01152214-.65513413-.01626661-.95828624-.04541093-3.24176103-.05896649-4.21971488-2.97746848-4.74734879l-.17622167-.03255324v-.75415027h9.50173703v.75279388l-.1728328.03390963c-3.2723009.64360486-3.268912 1.37673115-3.2533232 4.90062031.0013556.2543223.0027111.52220838.0027111.80569291v1.84332773c.8989275.06145616 1.7948474.16101376 2.6853472.29840475l.4405542.0576464c1.2532072.16412262 2.3349372.30586492 3.3814228.36351122l.6303314.0366224c1.1257853.0678193 1.9384384.115971 2.5172588-.067141.383621-.1064762.6398202-.1607317.7645309.0339096.1280996.2000668-.0487998.4299742-.2195993.6524214zm106.1613585 15.0341754h-.000679c3.441068 0 7.116645-2.8687551 7.116645-10.9189022 0-4.1837707-1.062752-7.39230029-3.15979-9.5374237-1.815761-1.85756977-4.383175-2.84908747-7.433166-2.8741806v18.8761369c0 2.4374245.260944 4.4543696 3.47699 4.4543696z"/><path d="m28.3569876 22.9333333h89.8441644l-3.105312 4.6229352 3.113462 4.4437315h-89.8604648l3.1107452-4.4469779zm16.6750889 6.1325313v-3.8074286h-.7219918v1.6569846h-2.4152424v-1.6569846h-.7219917v3.8074286h.7219917v-1.6693211h2.4152424v1.6686718zm13.6275092-3.8619689c-1.456888 0-2.2427247 1.0083453-2.2427247 1.9576053 0 .9499093.7858367 1.9589039 2.243404 1.9589039 1.4534924 0 2.2372913-1.0089946 2.2372913-1.9589039 0-.9486107-.7837989-1.9576053-2.2372913-1.9576053zm.0006793 3.3750024c-.8917924 0-1.490169-.5694261-1.490169-1.4173971 0-.8473217.5976978-1.4167478 1.490169-1.4167478.887717 0 1.4840562.5694261 1.4840562 1.4167478 0 .8486203-.5963392 1.4180464-1.4840562 1.4180464zm17.8134315.4869665v-3.8074286h-.675127l-1.4208903 1.6141316-1.4208908-1.6141316h-.6744477v3.8074286h.7219919v-2.8471307l1.37878 1.5647856 1.368592-1.5647856v2.8471307zm14.2041517-1.7491836v-.4369713h-1.9126329v-1.1836532h2.0050047v-.4376205h-2.7276754v3.8067793h2.7711443v-.4369712h-2.0484736v-1.3115631zm14.2482998.7103218c0-.7570706-.683277-1.0044496-1.287087-1.2226105-.436728-.1571279-.848324-.3064643-.848324-.6648716 0-.3025685.305641-.4980044.777007-.4980044.33213 0 .662901.0798625 1.167549.285687v-.4558006c-.464575-.1869952-.846286-.267507-1.25992-.267507-.872095 0-1.436512.402559-1.436512 1.0258761 0 .7726535.67241 1.0102931 1.264674 1.2200134.448273.1577771.869378.3064642.869378.6921417 0 .1272605-.055694.5402081-.777007.5402081-.423822 0-.777686-.1084312-1.270787-.4012604v.5025495c.384429.1928387.712483.3369808 1.350933.3369808.880925 0 1.450096-.4291798 1.450096-1.0934021z"/></g></svg>