<?xml version="1.0" encoding="UTF-8"?>
<svg width="110px" height="60px" viewBox="0 0 110 60" version="1.1" xmlns="http://www.w3.org/2000/svg" xmlns:xlink="http://www.w3.org/1999/xlink">
    <!-- Generator: Sketch 49.2 (51160) - http://www.bohemiancoding.com/sketch -->
    <title>keyzie-logo</title>
    <desc>Created with Sketch.</desc>
    <defs></defs>
    <g id="keyzie-logo" stroke="none" stroke-width="1" fill="none" fill-rule="evenodd" fill-opacity="0.799999952">
        <path d="M8.28698186,22.6660431 C8.28707714,24.3301076 8.28459974,25.9942673 8.28926869,27.658427 C8.29022153,27.9686844 8.31718707,28.2791321 8.33776855,28.5891991 C8.34615359,28.7150151 8.55406457,28.7927698 8.66516641,28.7175848 C8.72243245,28.6789453 8.78570142,28.6473486 8.83782209,28.6027134 C10.0295465,27.5814337 11.0851092,26.4384302 11.9488641,25.1244046 C11.9868826,25.0665406 12.0230908,25.0073443 12.0572979,24.9471011 C12.2896018,24.5376755 12.156775,24.1370057 11.7174178,23.9088809 C11.4066947,23.7473757 11.0731987,23.6597233 10.7337949,23.5842527 C10.5793386,23.549896 10.4418429,23.3645029 10.4364117,23.1973827 C10.4273597,22.9204351 10.4195463,22.6430117 10.4284078,22.3663497 C10.4386033,22.0505724 10.6297442,21.8624194 10.9696243,21.8634663 C11.5591501,21.8651794 12.1496287,21.8762192 12.7380111,21.9108614 C13.9177296,21.9804314 15.0959236,21.9770053 16.2758327,21.9139069 C16.9335823,21.8787888 17.5931422,21.8746013 18.2519399,21.8684152 C18.4680454,21.8664166 18.6494672,22.0494304 18.6571853,22.2642313 C18.6685242,22.5751548 18.6695723,22.8870301 18.659091,23.1980489 C18.6518494,23.4108512 18.5092083,23.5774004 18.2682336,23.6195611 C17.5286346,23.7488985 16.9033771,24.1108337 16.3099446,24.5431954 C16.0856447,24.706604 15.86144,24.8705836 15.6453346,25.0443658 C14.4290267,26.0228186 13.214434,27.0034603 12.0015564,27.9861006 C11.8678722,28.0945004 11.7398097,28.2127027 11.6251823,28.3406125 C11.5575302,28.4159879 11.5157003,28.5191533 11.5810655,28.6259351 C11.6533865,28.7437568 11.7188471,28.8668129 11.8010777,28.9774015 C13.1259146,30.7580505 14.4506564,32.5388898 15.780734,34.3156367 C16.2176139,34.8993203 16.692417,35.4512168 17.2295362,35.9475334 C17.8226828,36.4955279 18.4735719,36.9447349 19.2615755,37.1699094 C19.3593375,37.1977945 19.4499531,37.2511854 19.5431414,37.2943931 C19.6224182,37.3309387 19.6673926,37.4926342 19.6255626,37.5658207 C19.3821105,37.9920915 19.0374661,38.335278 18.6940604,38.6759901 C18.6044929,38.7648798 18.450513,38.8310236 18.3240704,38.834545 C16.9202424,38.8732795 15.5565293,38.6974988 14.2787629,38.0616615 C13.3919492,37.6202585 12.6574956,36.9977451 12.0407184,36.2320946 C11.2356589,35.2327994 10.4393655,34.2265567 9.63640227,33.2257387 C9.31100538,32.82012 8.98036784,32.4184985 8.64391794,32.0221114 C8.61085419,31.9832816 8.51223464,31.9710046 8.45716014,31.9881353 C8.40408662,32.0046951 8.35368107,32.0690307 8.32862122,32.124325 C8.30136983,32.1847586 8.29584332,32.2588968 8.29565275,32.3271343 C8.29279422,33.2977831 8.29212722,34.2685271 8.29184137,35.2391759 C8.29184137,35.3083652 8.30089341,35.3775545 8.30289438,35.4468389 C8.31899748,36.011869 8.63410363,36.3401137 9.15168954,36.4947665 C9.41715242,36.5742343 9.69052392,36.6273397 9.95979818,36.6948159 C10.313304,36.7832298 10.3971545,36.8926764 10.4086839,37.2816402 C10.4127811,37.4201139 10.4133528,37.5589684 10.4092556,37.6974421 C10.3968686,38.1151476 10.2667099,38.2463883 9.83850089,38.2581895 C9.56103216,38.2658032 9.28318228,38.2622819 9.00561826,38.2569523 C6.74956494,38.2134592 4.49360691,38.1992787 2.23764887,38.2563813 C2.20296528,38.2572378 2.16828169,38.2574282 2.13350281,38.2583799 C1.0413508,38.2905477 0.960549468,38.1949008 1.06021715,37.0702654 C1.07727309,36.8781152 1.20600258,36.7641956 1.38637632,36.7120419 C1.61972829,36.6445656 1.85746335,36.5911747 2.08767092,36.5145621 C2.251084,36.4601243 2.41192439,36.3894123 2.56161649,36.3043294 C2.78200976,36.1790844 2.92960559,35.9879811 2.97381764,35.7332084 C3.00335587,35.5630427 3.02917799,35.3909736 3.03756304,35.2188093 C3.04947361,34.9766943 3.04499523,34.7336276 3.04499523,34.4909416 C3.04528109,30.2959954 3.04556694,26.1011443 3.04480466,21.9061981 C3.04470938,21.455849 3.04632922,21.0071178 2.96676658,20.5589577 C2.87091028,20.0193383 2.41878489,19.7406777 2.0507005,19.6884288 C1.81115503,19.6543576 1.56779818,19.6482667 1.32653759,19.6254256 C1.20238177,19.6137196 1.05030755,19.4780058 1.04039796,19.36066 C1.02019762,19.1202581 0.997710459,18.8788093 1.00018786,18.6380268 C1.00390396,18.2732364 1.11586336,18.1212484 1.4520274,18.0417806 C2.95171162,17.6870784 4.33495806,17.0548576 5.66884708,16.3003421 C5.94021761,16.1468313 6.21768634,16.0027425 6.50001459,15.8706451 C6.7881552,15.7357879 7.0980207,15.7007649 7.41493726,15.7233205 C7.77044408,15.7486359 8.08802763,15.9877054 8.1741649,16.3337471 C8.2322885,16.5671063 8.26716266,16.8097923 8.27954966,17.0499087 C8.29765373,17.39576 8.286696,17.7430389 8.28679129,18.0897468 C8.28707714,19.6151472 8.28698186,21.1406427 8.28698186,22.6660431 Z M90.2021608,30.919944 C89.0905579,30.919944 87.9788596,30.9187097 86.8672567,30.9212732 C86.6942453,30.921653 86.5209478,30.9356103 86.348318,30.9499474 C86.1810291,30.9638098 86.0331015,31.1289238 86.0462634,31.3097991 C86.0862257,31.8607803 86.0975754,32.4179332 86.1948586,32.9593247 C86.2922371,33.5013809 86.4548525,34.0360312 86.636257,34.5575787 C86.7600545,34.9132526 86.9556699,35.2459492 87.1360252,35.5798801 C87.5051289,36.2632184 88.1116225,36.6398758 88.8399107,36.848096 C90.2250509,37.2441227 92.0407167,36.8940506 93.0539873,35.5330709 C93.2399698,35.2831687 93.426906,35.0338361 93.6171804,34.7870671 C93.7732149,34.5847337 93.979417,34.4628209 94.2383618,34.4580735 C94.4458991,34.4542756 94.654581,34.4624411 94.8613554,34.480766 C95.0849158,34.5006101 95.2777653,34.7882065 95.2452422,35.0181697 C95.2054706,35.2986451 95.0912106,35.5481676 94.9408033,35.7828782 C94.0374053,37.1931358 92.7756812,38.101595 91.1263506,38.4505276 C88.8558385,38.9309628 86.6952945,38.576808 84.671233,37.4871887 C83.0478445,36.6132904 81.9593225,35.2485128 81.3207827,33.5297703 C80.9434768,32.5142101 80.7619769,31.4623799 80.7641706,30.3790272 C80.7655058,29.7219894 80.7564452,29.0658061 80.8574479,28.4124713 C81.0674651,27.0539602 81.5546438,25.8162225 82.3961429,24.716064 C83.4455609,23.3440703 84.8166808,22.4592531 86.4676329,21.9808118 C88.3738101,21.4285013 90.2464151,21.5271519 92.0666588,22.3130337 C94.084807,23.1843683 95.3474849,24.7127408 95.8532618,26.8349159 C96.0381952,27.6108282 96.0413426,28.4205418 95.9019034,29.207563 C95.7477764,30.0767138 95.2181556,30.6843788 94.2623964,30.8633552 C93.9920066,30.9139623 93.7098855,30.9152915 93.43301,30.9167158 C92.3560285,30.9223177 91.2791423,30.9189945 90.2021608,30.9189945 L90.2021608,30.919944 Z M88.4791782,28.9782576 L88.4791782,28.9794913 C89.0610597,28.9794913 89.6430352,28.984901 90.2248226,28.9760747 C90.3934253,28.9736072 90.5678581,28.9503552 90.7269633,28.8978721 C90.809243,28.8707289 90.8744084,28.7652882 90.9273495,28.6823402 C90.9617659,28.6283387 90.970605,28.5515596 90.9734261,28.4841762 C91.0221356,27.3341986 90.8347261,26.211554 90.5582666,25.1035249 C90.4580265,24.7018821 90.2810548,24.3179868 90.0257529,23.9894218 C89.5931032,23.4327024 89.0181802,23.1531089 88.3157474,23.2725009 C87.8346702,23.354215 87.4133045,23.5943276 87.0996076,23.9889473 C86.8409205,24.3142855 86.6317892,24.6702784 86.4927131,25.0648032 C86.0856406,26.2194312 85.9743045,27.4193294 85.9622682,28.6338432 C85.9613278,28.7283697 86.1253229,28.9074576 86.225657,28.9237814 C86.3601254,28.9456099 86.4955341,28.9746511 86.6307548,28.9758849 C87.2468646,28.9813895 87.8630684,28.9782576 88.4791782,28.9782576 Z M28.672609,30.9214567 C27.6640408,30.9214567 26.6554726,30.9200327 25.6469044,30.922501 C25.403694,30.9230707 25.1602927,30.9308554 24.91756,30.9452857 C24.7012881,30.9581021 24.5544639,31.1333541 24.5520758,31.3680362 C24.5390842,32.6332498 24.8465838,33.832103 25.3214458,34.9946907 C25.3864038,35.1538036 25.4833631,35.2998153 25.564274,35.4525675 C26.021368,36.316771 26.7732567,36.7546163 27.711804,36.930438 C28.672609,37.1105318 29.5798236,36.9514189 30.4450067,36.51889 C30.823769,36.3294924 31.1354718,36.0525638 31.4044743,35.7323443 C31.6269554,35.4673776 31.8423675,35.1945312 32.0371459,34.9092482 C32.2783502,34.5561808 32.6067701,34.4214664 33.0206862,34.4508966 C33.0553623,34.4534599 33.0901339,34.4525105 33.1250011,34.453365 C33.5713961,34.463713 33.8826213,34.656908 33.6970134,35.2874736 C33.6488681,35.4509536 33.5729246,35.6116805 33.4816968,35.7562682 C32.5673177,37.2078413 31.2702596,38.1214116 29.5782952,38.4665993 C27.3392509,38.923242 25.2114948,38.5607759 23.2140369,37.5064154 C21.6514153,36.6815155 20.5728262,35.3885806 19.9158908,33.7609959 C19.4984403,32.7264771 19.2601973,31.6500914 19.2847476,30.5260478 C19.2930584,30.1460186 19.2865626,29.7657045 19.2868492,29.3854854 C19.2875179,28.6537178 19.4077857,27.9413172 19.6297891,27.2442013 C20.5610764,24.3195045 22.549746,22.531098 25.5423984,21.8452795 C27.3660938,21.4272758 29.1372496,21.6255024 30.8279722,22.4260037 C32.5164021,23.2254607 33.6542176,24.5161172 34.2321526,26.28772 C34.5157706,27.1573348 34.5774807,28.0494494 34.4677208,28.9513425 C34.4347642,29.2221952 34.3623551,29.4973201 34.25527,29.7482362 C34.0421505,30.2477901 33.6647255,30.58975 33.1415271,30.7712678 C32.8072801,30.8871848 32.4658686,30.9217415 32.1154776,30.9208871 C30.9679184,30.9182289 29.8201682,30.9198428 28.672609,30.9198428 L28.672609,30.9214567 Z M26.9575548,28.9769159 L26.9575548,28.9806176 C27.1641194,28.9806176 27.3707787,28.9819464 27.5773433,28.9803329 C28.0593273,28.9765362 28.5415007,28.9771057 29.0232953,28.9645767 C29.3162363,28.9569833 29.4953347,28.7913537 29.4986496,28.5284345 C29.5129509,27.3846882 29.4158722,26.2514778 29.1015266,25.1483559 C29.0078574,24.8199441 28.8640862,24.4985562 28.6973002,24.1997584 C28.175727,23.265873 27.151807,22.9866281 26.2095278,23.4985139 C25.9322141,23.6492416 25.7026348,23.8536922 25.5176643,24.1084486 C25.2312584,24.5029224 25.0069829,24.9310916 24.8908672,25.4051056 C24.767743,25.9073098 24.6364736,26.4115073 24.5716913,26.9228236 C24.5025523,27.4684997 24.50331,28.0233827 24.4813371,28.574564 C24.4747073,28.7417123 24.6299386,28.9096199 24.7922731,28.9321152 C24.9280886,28.9509087 25.0648512,28.9737836 25.2013297,28.9749226 C25.7866434,28.9796684 26.3721465,28.9769159 26.9575548,28.9769159 Z M39.2524148,21.9410937 C40.292993,21.9024761 41.3998435,21.8577859 42.5069791,21.8227739 C42.7823368,21.8140446 43.0590257,21.829985 43.3343834,21.847159 C43.5008721,21.8575013 43.656046,22.022314 43.6704985,22.1886448 C43.6855215,22.3602891 43.7005444,22.5329771 43.6982625,22.7049061 C43.6922723,23.1701201 43.6546198,23.3872136 43.0635896,23.4393047 C42.8610648,23.4571428 42.6556875,23.5218533 42.4670447,23.6015555 C42.1540345,23.7337283 41.9823163,23.989724 41.9720474,24.3290276 C41.966913,24.4982998 41.9922048,24.6743087 42.0375589,24.837888 C42.0832934,25.0027007 42.1675361,25.1574557 42.2406543,25.3139187 C43.2496652,27.4743218 44.2589615,29.6346302 45.2713003,31.7936101 C45.343943,31.9486498 45.4393103,32.0932523 45.5268809,32.2411757 C45.5729006,32.3188853 45.7333992,32.292318 45.7834124,32.1977191 C45.8477829,32.0764579 45.9180486,31.9570944 45.9686322,31.8300454 C46.8261775,29.6800794 47.6813456,27.5292594 48.535563,25.3778702 C48.5993631,25.217517 48.6602156,25.0550764 48.7074714,24.8893148 C48.8648322,24.3367131 48.6223729,23.838195 48.0750805,23.638655 C47.8175983,23.5448152 47.5409094,23.4991762 47.2697353,23.4489828 C47.0664499,23.411314 46.8577447,23.404008 46.6520822,23.3780099 C46.524482,23.3618797 46.3972622,23.2265758 46.3829048,23.101709 C46.3711147,22.9991399 46.3534294,22.8965708 46.3507671,22.7936222 C46.3268064,21.8581654 46.3948852,21.7888056 47.3346764,21.8228688 C47.680585,21.8353934 48.0256378,21.8816966 48.3712612,21.8847328 C49.2015179,21.8920389 50.0320598,21.8911849 50.8622214,21.8776166 C51.4504942,21.8679384 52.0381965,21.8278027 52.6264693,21.8117674 C52.7618661,21.8080669 52.9060106,21.8272334 53.0318041,21.874011 C53.1181387,21.9061765 53.2190207,21.9915717 53.2458339,22.0748794 C53.3644963,22.4434071 53.3793291,22.8226566 53.2394634,23.1890968 C53.2087519,23.2697478 53.1005485,23.3570406 53.0146894,23.3741197 C52.7100464,23.4343707 52.3982723,23.4578069 52.0917277,23.5096134 C51.5837041,23.595483 51.1868316,23.861821 50.9395231,24.3109997 C50.7235917,24.7033431 50.5207816,25.1063135 50.3526765,25.5209545 C49.5733838,27.4423461 48.808924,29.3697153 48.0379034,31.2944278 C46.3675966,35.4638001 44.6966242,39.6329826 43.0250814,43.8018804 C42.9093665,44.0905162 42.7907041,44.3781082 42.6657662,44.6627588 C42.5321759,44.9671451 42.3060707,45.1465699 41.9703359,45.2208637 C41.3778795,45.3519928 40.8015871,45.2904133 40.2270061,45.1378406 C40.0459698,45.0897347 39.8963106,44.805938 39.9704746,44.6329653 C40.0651764,44.4121713 40.1708126,44.1946034 40.2893799,43.985575 C40.9546692,42.8133838 41.628706,41.6459368 42.2920937,40.4727019 C42.479025,40.1420328 42.6392383,39.7965618 42.8133336,39.4586815 C42.9986486,39.0991678 43.0092977,38.7300709 42.8741861,38.3541423 C42.7809106,38.0941614 42.6960974,37.8300057 42.5839956,37.5781848 C41.853385,35.9367945 41.1337087,34.2902805 40.3774259,32.6607507 C39.1989787,30.1218571 37.9960003,27.5944444 36.7988219,25.0642801 C36.6365168,24.7211812 36.4576674,24.3850088 36.2689295,24.0556681 C36.0874178,23.7393264 35.7997945,23.5527854 35.4430466,23.4801995 C35.2400464,23.4389251 35.0300101,23.4263056 34.8314787,23.3709885 C34.7432425,23.3464137 34.6301899,23.2615878 34.6061342,23.1810317 C34.4962193,22.8119347 34.4812914,22.4321159 34.6125047,22.0647269 C34.641885,21.9824629 34.7464753,21.8952649 34.8330951,21.8718287 C34.9971117,21.8274232 35.1734889,21.8093953 35.3440661,21.8124316 C35.9325291,21.8228688 36.5208019,21.8464948 37.1090747,21.8663254 C37.8009869,21.8897617 38.4928041,21.9145263 39.2524148,21.9410937 Z M60.5419035,38.301398 C58.7376035,38.301398 56.9333989,38.3029233 55.129099,38.299968 C54.8173329,38.299396 54.5038522,38.2972034 54.1941817,38.2657442 C53.7168642,38.2173161 53.3953822,37.720642 53.5644579,37.2688688 C53.6725711,36.9799208 53.8302164,36.7048911 53.995863,36.4428264 C54.8676269,35.0637693 55.7493925,33.691004 56.626967,32.3155695 C58.3075321,29.6819575 59.9886686,27.0486314 61.665614,24.4126362 C61.8134481,24.18041 61.9339444,23.9305477 62.0628229,23.6865959 C62.099972,23.6162416 62.0015747,23.4520818 61.924419,23.4436927 C61.8219257,23.432539 61.7198135,23.405179 61.6177013,23.4062276 C60.6115341,23.4160467 59.6054621,23.4378775 58.5992948,23.4401654 C58.1030219,23.4414047 57.7213394,23.643125 57.4630107,24.0515226 C57.1852503,24.4906169 56.9383521,24.9494446 56.6784994,25.3998832 C56.5748631,25.5794866 56.4843719,25.7684325 56.3639709,25.9359289 C56.3090094,26.012289 56.197086,26.0908417 56.1090714,26.0931296 C55.5558366,26.1069526 55.001935,26.1023767 54.4483191,26.0969429 C54.3266799,26.0957036 54.1994206,25.9161001 54.2175189,25.7983664 C54.2228531,25.7640473 54.2219005,25.7283935 54.2303781,25.6950277 C54.5301423,24.5185488 54.8262867,23.3411166 55.1335759,22.1666397 C55.2352118,21.7782615 55.3967625,21.6508041 55.7985436,21.6448935 C56.2487136,21.6382204 56.7090759,21.6049499 57.1475297,21.6823586 C57.9408044,21.8223997 58.7361747,21.8278336 59.5329738,21.8282149 C62.0658711,21.8293589 64.5987683,21.8180145 67.1316655,21.811818 C67.4785803,21.81096 67.8256856,21.8074328 68.1725052,21.8155359 C68.2733791,21.8178238 68.3804445,21.8409892 68.4711262,21.8835068 C68.521325,21.9069582 68.5632368,21.9872269 68.5727622,22.0475713 C68.5826686,22.1109664 68.5645703,22.1897098 68.532184,22.246813 C68.3785394,22.5184108 68.2212752,22.7882926 68.0555333,23.0526452 C65.4380506,27.2294742 62.8186629,31.4050639 60.2016564,35.5821788 C60.0362956,35.8461501 59.8850324,36.1189872 59.7321498,36.3904897 C59.6696632,36.5013595 59.7883496,36.7000292 59.9183712,36.6964066 C60.9929308,36.6666634 62.0683477,36.6501711 63.1415737,36.5935446 C63.7973017,36.5590348 64.3351054,36.2454914 64.7373627,35.7234592 C64.9061527,35.5044841 65.0599878,35.2714 65.198106,35.0318334 C65.4061406,34.6711965 65.5950291,34.2995966 65.7908712,33.9320959 C66.1388338,33.2791744 66.1423582,33.2766958 66.9282983,33.2665907 C66.963066,33.2661141 66.9977385,33.2663048 67.0324109,33.2661141 C68.4380731,33.2594409 68.4004478,33.2193066 68.0985881,34.5594687 C67.8695977,35.575601 67.6463225,36.5928772 67.4176178,37.6090095 C67.387327,37.7437121 67.3477014,37.8777474 67.2976931,38.0063488 C67.2447319,38.1425767 67.1388095,38.2455341 66.9927853,38.2576411 C66.6823527,38.2832851 66.3702056,38.2990147 66.0587252,38.2995867 C64.2198481,38.3033046 62.3808758,38.301398 60.5419035,38.301398 Z M77.0325752,28.9662613 C77.0325752,30.8747215 77.0312537,32.783277 77.0338967,34.6917372 C77.0343687,35.0035521 77.0401268,35.3165114 77.0660856,35.6269913 C77.0942155,35.9631222 77.2760212,36.2188676 77.573839,36.3596135 C77.8205888,36.4762342 78.0875393,36.550326 78.3474101,36.6374816 C78.5419592,36.7027053 78.7420777,36.7515277 78.9339837,36.8231402 C78.9892995,36.8438326 79.0467863,36.9110587 79.066043,36.9695121 C79.1891348,37.3423551 79.1692173,37.7199659 79.0650047,38.0925228 C79.049335,38.1483062 78.9757065,38.2038035 78.9164262,38.2272612 C78.8223138,38.2645455 78.7181956,38.2895288 78.6173812,38.293343 C78.3429735,38.3036415 78.0680938,38.3017344 77.7934029,38.3017344 C75.5950262,38.3020205 73.3967438,38.3020205 71.1984614,38.3006855 C70.889505,38.3004948 70.5802653,38.2982062 70.271592,38.2859053 C70.0433437,38.2767511 69.8683345,38.1136919 69.8643698,37.9034313 C69.8589893,37.6269935 69.8623875,37.3496022 69.8790011,37.0737365 C69.8879687,36.9258389 69.9883111,36.8217099 70.1254678,36.7723154 C70.254412,36.7257815 70.3897752,36.6974607 70.5217401,36.6587461 C70.6865546,36.6104004 70.8527851,36.5654876 71.0148622,36.508846 C71.5649991,36.3163217 71.8604571,35.9417623 71.8344983,35.3346291 C71.8256251,35.1268478 71.8371414,34.9183036 71.8372358,34.7101409 C71.8374246,32.2118069 71.8391237,29.7133776 71.8352535,27.2149483 C71.8347815,26.8688051 71.8318552,26.519229 71.7853182,26.1774722 C71.722734,25.7189993 71.4299192,25.440559 70.993812,25.3197426 C70.8622247,25.2833165 70.7245016,25.2593821 70.5882889,25.2512768 C69.8251013,25.2057919 69.8284996,25.049503 69.8303875,24.334045 C69.8306707,24.1959691 69.8318978,24.0531255 69.8664465,23.9214385 C69.8900454,23.8318989 69.9551783,23.721381 70.0320162,23.6843828 C70.2164651,23.5958922 70.4142236,23.5215143 70.6143421,23.4831811 C71.8732948,23.2424065 73.0487076,22.7648624 74.1999551,22.2158011 C74.5104219,22.0677128 74.8152249,21.9056072 75.1324882,21.7745877 C75.4170906,21.6570134 75.7094335,21.5465908 76.0086672,21.4801275 C76.6443265,21.3387142 77.2006936,21.7610471 77.2171184,22.4158585 C77.2343928,23.1087171 77.2132482,23.8032921 77.1865343,24.4963413 C77.1665224,25.0157469 77.0924219,25.5331499 77.0757139,26.0525555 C77.0443746,27.0232822 77.0372006,27.9947718 77.020115,28.9660706 C77.0242684,28.9660706 77.0284218,28.966166 77.0325752,28.9662613 Z M71.6261542,17.6173648 C71.5627916,16.1670851 72.7493391,15.1753441 73.9587543,15.024509 C74.7948544,14.9201499 75.5310036,15.1501735 76.1685359,15.6932742 C76.2207505,15.7377706 76.2718217,15.7841524 76.3196533,15.8333624 C77.225214,16.7648635 77.2711399,18.6609553 76.1885451,19.6517536 C74.797427,20.924802 72.6589164,20.4304399 71.8755073,18.8868309 C71.6671254,18.4762766 71.6064308,18.0435683 71.6261542,17.6173648 Z" id="Combined-Shape" fill="#000000"></path>
    </g>
</svg>