<svg height="60" viewBox="0 0 110 60" width="110" xmlns="http://www.w3.org/2000/svg"><path d="m8.28698186 22.6660431c.00009528 1.6640645-.00238212 3.3282242.00228683 4.9923839.00095284.3102574.02791838.6207051.04849986.9307721.00838504.125816.21629602.2035707.32739786.1283857.05726604-.0386395.12053501-.0702362.17265568-.1148714 1.19172441-1.0212797 2.24728711-2.1642832 3.11104201-3.4783088.0380185-.057864.0742267-.1170603.1084338-.1773035.2323039-.4094256.0994771-.8100954-.3398801-1.0382202-.3107231-.1615052-.6442191-.2491576-.9836229-.3246282-.1544563-.0343567-.291952-.2197498-.2973832-.38687-.009052-.2769476-.0168654-.554371-.0080039-.831033.0101955-.3157773.2013364-.5039303.5412165-.5028834.5895258.0017131 1.1800044.0127529 1.7683868.0473951 1.1797185.06957 2.3579125.0661439 3.5378216.0030455.6577496-.0351181 1.3173095-.0393056 1.9761072-.0454917.2161055-.0019986.3975273.1810152.4052454.3958161.0113389.3109235.012387.6227988.0019057.9338176-.0072416.2128023-.1498827.3793515-.3908574.4215122-.739599.1293374-1.3648565.4912726-1.958289.9236343-.2242999.1634086-.4485046.3273882-.66461.5011704-1.2163079.9784528-2.4309006 1.9590945-3.6437782 2.9417348-.1336842.1083998-.2617467.2266021-.3763741.3545119-.0676521.0753754-.109482.1785408-.0441168.2853226.072321.1178217.1377816.2408778.2200122.3514664 1.3248369 1.780649 2.6495787 3.5614883 3.9796563 5.3382352.4368799.5836836.911683 1.1355801 1.4488022 1.6318967.5931466.5479945 1.2440357.9972015 2.0320393 1.222376.097762.0278851.1883776.081276.2815659.1244837.0792768.0365456.1242512.1982411.0824212.2714276-.2434521.4262708-.5880965.7694573-.9315022 1.1101694-.0895675.0888897-.2435474.1550335-.36999.1585549-1.403828.0387345-2.7675411-.1370462-4.0453075-.7728835-.8868137-.441403-1.6212673-1.0639164-2.2380445-1.8295669-.8050595-.9992952-1.6013529-2.0055379-2.40431613-3.0063559-.32539689-.4056187-.65603443-.8072402-.99248433-1.2036273-.03306375-.0388298-.1316833-.0511068-.1867578-.0339761-.05307352.0165598-.10347907.0808954-.12853892.1361897-.02725139.0604336-.0327779.1345718-.03296847.2028093-.00285853.9706488-.00352553 1.9413928-.00381138 2.9120416 0 .0691893.00905204.1383786.01105301.207663.0161031.5650301.33120925.8932748.84879516 1.0479276.26546288.0794678.53883438.1325732.80810864.2000494.35350582.0884139.43735632.1978605.44888572.5868243.0040972.1384737.0046689.2773282.0005717.4158019-.012387.4177055-.1425457.5489462-.57075471.5607474-.27746873.0076137-.55531861.0040924-.83288263-.0012372-2.25605332-.0434931-4.51201135-.0576736-6.76796939-.000571-.03468359.0008565-.06936718.0010469-.10414606.0019986-1.09215201.0321678-1.17295334-.0634791-1.07328566-1.1881145.01705594-.1921502.14578543-.3060698.32615917-.3582235.23335197-.0674763.47108703-.1208672.7012946-.1974798.16341308-.0544378.32425347-.1251498.47394557-.2102327.22039327-.125245.3679891-.3163483.41220115-.571121.02953823-.1701657.05536035-.3422348.0637454-.5143991.01191057-.242115.00743219-.4851817.00743219-.7278677.00028586-4.1949462.00057171-8.3897973-.00019057-12.5847435-.00009528-.4503491.00152456-.8990803-.07803808-1.3472404-.0958563-.5396194-.54798169-.81828-.91606608-.8705289-.23954547-.0340712-.48290232-.0401621-.72416291-.0630032-.12415582-.011706-.27623004-.1474198-.28613963-.2647656-.02020034-.2404019-.0426875-.4818507-.0402101-.7226332.0037161-.3647904.1156755-.5167784.45183954-.5962462 1.49968422-.3547022 2.88293066-.986923 4.21681968-1.7414385.27137053-.1535108.54883926-.2975996.83116751-.429697.28814061-.1348572.59800611-.1698802.91492267-.1473246.35550682.0253154.67309037.2643849.75922764.6104266.0581236.2333592.09299776.4760452.10538476.7161616.01810407.3458513.00714634.6931302.00724163 1.0398381.00028585 1.5254004.00019057 3.0508959.00019057 4.5762963zm81.91517894 8.2539009c-1.1116029 0-2.2233012-.0012343-3.3349041.0013292-.1730114.0003798-.3463089.0143371-.5189387.0286742-.1672889.0138624-.3152165.1789764-.3020546.3598517.0399623.5509812.051312 1.1081341.1485952 1.6495256.0973785.5420562.2599939 1.0767065.4413984 1.598254.1237975.3556739.3194129.6883705.4997682 1.0223014.3691037.6833383.9755973 1.0599957 1.7038855 1.2682159 1.3851402.3960267 3.200806.0459546 4.2140766-1.3150251.1859825-.2499022.3729187-.4992348.5631931-.7460038.1560345-.2023334.3622366-.3242462.6211814-.3289936.2075373-.0037979.4162192.0043676.6229936.0226925.2235604.0198441.4164099.3074405.3838868.5374037-.0397716.2804754-.1540316.5299979-.3044389.7647085-.903398 1.4102576-2.1651221 2.3187168-3.8144527 2.6676494-2.2705121.4804352-4.4310561.1262804-6.4551176-.9633389-1.6233885-.8738983-2.7119105-2.2386759-3.3504503-3.9574184-.3773059-1.0155602-.5588058-2.0673904-.5566121-3.1507431.0013352-.6570378-.0077254-1.3132211.0932773-1.9665559.2100172-1.3585111.6971959-2.5962488 1.538695-3.6964073 1.049418-1.3719937 2.4205379-2.2568109 4.07149-2.7352522 1.9061772-.5523105 3.7787822-.4536599 5.5990259.3322219 2.0181482.8713346 3.2808261 2.3997071 3.786603 4.5218822.1849334.7759123.1880808 1.5856259.0486416 2.3726471-.154127.8691508-.6837478 1.4768158-1.639507 1.6557922-.2703898.0506071-.5525109.0519363-.8293864.0533606-1.0769815.0056019-2.1538677.0022787-3.2308492.0022787zm-1.7229826-1.9416864v.0012337c.5818815 0 1.163857.0054097 1.7456444-.0034166.1686027-.0024675.3430355-.0257195.5021407-.0782026.0822797-.0271432.1474451-.1325839.2003862-.2155319.0344164-.0540015.0432555-.1307806.0460766-.198164.0487095-1.1499776-.1387-2.2726222-.4151595-3.3806513-.1002401-.4016428-.2772118-.7855381-.5325137-1.1141031-.4326497-.5567194-1.0075727-.8363129-1.7100055-.7169209-.4810772.0817141-.9024429.3218267-1.2161398.7164464-.2586871.3253382-.4678184.6813311-.6068945 1.0758559-.4070725 1.154628-.5184086 2.3545262-.5304449 3.56904-.0009404.0945265.1630547.2736144.2633888.2899382.1344684.0218285.2698771.0508697.4050978.0521035.6161098.0055046 1.2323136.0023727 1.8484234.0023727zm-59.8065692 1.9431991c-1.0085682 0-2.0171364-.001424-3.0257046.0010443-.2432104.0005697-.4866117.0083544-.7293444.0227847-.2162719.0128164-.3630961.1880684-.3654842.4227505-.0129916 1.2652136.294508 2.4640668.76937 3.6266545.064958.1591129.1619173.3051246.2428282.4578768.457094.8642035 1.2089827 1.3020488 2.14753 1.4778705.960805.1800938 1.8680196.0209809 2.7332027-.411548.3787623-.1893976.6904651-.4663262.9594676-.7865457.2224811-.2649667.4378932-.5378131.6326716-.8230961.2412043-.3530674.5696242-.4877818.9835403-.4583516.0346761.0025633.0694477.0016139.1043149.0024684.446395.010348.7576202.203543.5720123.8341086-.0481453.16348-.1240888.3242069-.2153166.4687946-.9143791 1.4515731-2.2114372 2.3651434-3.9034016 2.7103311-2.2390443.4566427-4.3668004.0941766-6.3642583-.9601839-1.5626216-.8248999-2.6412107-2.1178348-3.2981461-3.7454195-.4174505-1.0345188-.6556935-2.1109045-.6311432-3.2349481.0083108-.3800292.001815-.7603433.0021016-1.1405624.0006687-.7317676.1209365-1.4441682.3429399-2.1412841.9312873-2.9246968 2.9199569-4.7131033 5.9126093-5.3989218 1.8236954-.4180037 3.5948512-.2197771 5.2855738.5807242 1.6884299.799457 2.8262454 2.0901135 3.4041804 3.8617163.283618.8696148.3453281 1.7617294.2355682 2.6636225-.0329566.2708527-.1053657.5459776-.2124508.7968937-.2131195.4995539-.5905445.8415138-1.1137429 1.0230316-.334247.115917-.6756585.1504737-1.0260495.1496193-1.1475592-.0026582-2.2953094-.0010443-3.4428686-.0010443zm-1.7150542-1.9445408v.0037017c.2065646 0 .4132239.0013288.6197885-.0002847.481984-.0037967.9641574-.0032272 1.445952-.0157562.292941-.0075934.4720394-.173223.4753543-.4361422.0143013-1.1437463-.0827774-2.2769567-.397123-3.3800786-.0936692-.3284118-.2374404-.6497997-.4042264-.9485975-.5215732-.9338854-1.5454932-1.2131303-2.4877724-.7012445-.2773137.1507277-.506893.3551783-.6918635.6099347-.2864059.3944738-.5106814.822643-.6267971 1.296657-.1231242.5022042-.2543936 1.0064017-.3191759 1.517718-.069139.5456761-.0683813 1.1005591-.0903542 1.6517404-.0066298.1671483.1486015.3350559.310936.3575512.1358155.0187935.2725781.0416684.4090566.0428074.5853137.0047458 1.1708168.0019933 1.7562251.0019933zm12.29486-7.0358222c1.0405782-.0386176 2.1474287-.0833078 3.2545643-.1183198.2753577-.0087293.5520466.0072111.8274043.0243851.1664887.0103423.3216626.175155.3361151.3414858.015023.1716443.0300459.3443323.027764.5162613-.0059902.465214-.0436427.6823075-.6346729.7343986-.2025248.0178381-.4079021.0825486-.5965449.1622508-.3130102.1321728-.4847284.3881685-.4949973.7274721-.0051344.1692722.0201574.3452811.0655115.5088604.0457345.1648127.1299772.3195677.2030954.4760307 1.0090109 2.1604031 2.0183072 4.3207115 3.030646 6.4796914.0726427.1550397.16801.2996422.2555806.4475656.0460197.0777096.2065183.0511423.2565315-.0434566.0643705-.1212612.1346362-.2406247.1852198-.3676737.8575453-2.149966 1.7127134-4.300786 2.5669308-6.4521752.0638001-.1603532.1246526-.3227938.1719084-.4885554.1573608-.5526017-.0850985-1.0511198-.6323909-1.2506598-.2574822-.0938398-.5341711-.1394788-.8053452-.1896722-.2032854-.0376688-.4119906-.0449748-.6176531-.0709729-.1276002-.0161302-.25482-.1514341-.2691774-.2763009-.0117901-.1025691-.0294754-.2051382-.0321377-.3080868-.0239607-.9354568.0441181-1.0048166.9839093-.9707534.3459086.0125246.6909614.0588278 1.0365848.061864.8302567.0073061 1.6607986.0064521 2.4909602-.0071162.5882728-.0096782 1.1759751-.0498139 1.7642479-.0658492.1353968-.0037005.2795413.015466.4053348.0622436.0863346.0321655.1872166.1175607.2140298.2008684.1186624.3685277.1334952.7477772-.0063705 1.1142174-.0307115.080651-.1389149.1679438-.224774.1850229-.304643.060251-.6164171.0836872-.9229617.1354937-.5080236.0858696-.9048961.3522076-1.1522046.8013863-.2159314.3923434-.4187415.7953138-.5868466 1.2099548-.7792927 1.9213916-1.5437525 3.8487608-2.3147731 5.7734733-1.6703068 4.1693723-3.3412792 8.3385548-5.012822 12.5074526-.1157149.2886358-.2343773.5762278-.3593152.8608784-.1335903.3043863-.3596955.4838111-.6954303.5581049-.5924564.1311291-1.1687488.0695496-1.7433298-.0830231-.1810363-.0481059-.3306955-.3319026-.2565315-.5048753.0947018-.220794.200338-.4383619.3189053-.6473903.6652893-1.1721912 1.3393261-2.3396382 2.0027138-3.5128731.1869313-.3306691.3471446-.6761401.5212399-1.0140204.185315-.3595137.1959641-.7286106.0608525-1.1045392-.0932755-.2599809-.1780887-.5241366-.2901905-.7759575-.7306106-1.6413903-1.4502869-3.2879043-2.2065697-4.9174341-1.1784472-2.5388936-2.3814256-5.0663063-3.578604-7.5964706-.1623051-.3430989-.3411545-.6792713-.5298924-1.008612-.1815117-.3163417-.469135-.5028827-.8258829-.5754686-.2030002-.0412744-.4130365-.0538939-.6115679-.109211-.0882362-.0245748-.2012888-.1094007-.2253445-.1899568-.1099149-.369097-.1248428-.7489158.0063705-1.1163048.0293803-.082264.1339706-.169462.2205904-.1928982.1640166-.0444055.3403938-.0624334.510971-.0593971.588463.0104372 1.1767358.0340632 1.7650086.0538938.6919122.0234363 1.3837294.0482009 2.1433401.0747683zm21.2894887 16.3603043c-1.8043 0-3.6085046.0015253-5.4128045-.00143-.3117661-.000572-.6252468-.0027646-.9349173-.0342238-.4773175-.0484281-.7987995-.5451022-.6297238-.9968754.1081132-.288948.2657585-.5639777.4314051-.8260424.8717639-1.3790571 1.7535295-2.7518224 2.631104-4.1272569 1.6805651-2.633612 3.3617016-5.2669381 5.038647-7.9029333.1478341-.2322262.2683304-.4820885.3972089-.7260403.0371491-.0703543-.0612482-.2345141-.1384039-.2429032-.1024933-.0111537-.2046055-.0385137-.3067177-.0374651-1.0061672.0098191-2.0122392.0316499-3.0184065.0339378-.4962729.0012393-.8779554.2029596-1.1362841.6113572-.2777604.4390943-.5246586.897922-.7845113 1.3483606-.1036363.1796034-.1941275.3685493-.3145285.5360457-.0549615.0763601-.1668849.1549128-.2548995.1572007-.5532348.013823-1.1071364.0092471-1.6607523.0038133-.1216392-.0012393-.2488985-.1808428-.2308002-.2985765.0053342-.0343191.0043816-.0699729.0128592-.1033387.2997642-1.1764789.5959086-2.3539111.9031978-3.528388.1016359-.3883782.2631866-.5158356.6649677-.5217462.45017-.0066731.9105323-.0399436 1.3489861.0374651.7932747.1400411 1.588645.145475 2.3854441.1458563 2.5328973.001144 5.0657945-.0102004 7.5986917-.0163969.3469148-.000858.6940201-.0043852 1.0408397.0037179.1008739.0022879.2079393.0254533.298621.0679709.0501988.0234514.0921106.1037201.101636.1640645.0099064.0633951-.0081919.1421385-.0405782.1992417-.1536446.2715978-.3109088.5414796-.4766507.8058322-2.6174827 4.176829-5.2368704 8.3524187-7.8538769 12.5295336-.1653608.2639713-.316624.5368084-.4695066.8083109-.0624866.1108698.0561998.3095395.1862214.3059169 1.0745596-.0297432 2.1499765-.0462355 3.2232025-.102862.655728-.0345098 1.1935317-.3480532 1.595789-.8700854.16879-.2189751.3226251-.4520592.4607433-.6916258.2080346-.3606369.3969231-.7322368.5927652-1.0997375.3479626-.6529215.351487-.6554001 1.1374271-.6655052.0347677-.0004766.0694402-.0002859.1041126-.0004766 1.4056622-.0066732 1.3680369-.0468075 1.0661772 1.2933546-.2289904 1.0161323-.4522656 2.0334085-.6809703 3.0495408-.0302908.1347026-.0699164.2687379-.1199247.3973393-.0529612.1362279-.1588836.2391853-.3049078.2512923-.3104326.025644-.6225797.0413736-.9340601.0419456-1.8388771.0037179-3.6778494.0018113-5.5168217.0018113zm16.4906717-9.3351367c0 1.9084602-.0013215 3.8170157.0013215 5.7254759.000472.3118149.0062301.6247742.0321889.9352541.0281299.3361309.2099356.5918763.5077534.7326222.2467498.1166207.5137003.1907125.7735711.2778681.1945491.0652237.3946676.1140461.5865736.1856586.0553158.0206924.1128026.0879185.1320593.1463719.1230918.372843.1031743.7504538-.0010383 1.1230107-.0156697.0557834-.0892982.1112807-.1485785.1347384-.0941124.0372843-.1982306.0622676-.299045.0660818-.2744077.0102985-.5492874.0083914-.8239783.0083914-2.1983767.0002861-4.3966591.0002861-6.5949415-.0010489-.3089564-.0001907-.6181961-.0024793-.9268694-.0147802-.2282483-.0091542-.4032575-.1722134-.4072222-.382474-.0053805-.2764378-.0019823-.5538291.0146313-.8296948.0089676-.1478976.10931-.2520266.2464667-.3014211.1289442-.0465339.2643074-.0748547.3962723-.1135693.1648145-.0483457.331045-.0932585.4931221-.1499001.5501369-.1925243.8455949-.5670837.8196361-1.1742169-.0088732-.2077813.0026431-.4163255.0027375-.6244882.0001888-2.498334.0018879-4.9967633-.0019823-7.4951926-.000472-.3461432-.0033983-.6957193-.0499353-1.0374761-.0625842-.4584729-.355399-.7369132-.7915062-.8577296-.1315873-.0364261-.2693104-.0603605-.4055231-.0684658-.7631876-.0454849-.7597893-.2017738-.7579014-.9172318.0002832-.1380759.0015103-.2809195.036059-.4126065.0235989-.0895396.0887318-.2000575.1655697-.2370557.1844489-.0884906.3822074-.1628685.5823259-.2012017 1.2589527-.2407746 2.4343655-.7183187 3.585613-1.26738.3104668-.1480883.6152698-.3101939.9325331-.4412134.2846024-.1175743.5769453-.2279969.876179-.2944602.6356593-.1414133 1.1920264.2809196 1.2084512.935731.0172744.6928586-.0038702 1.3874336-.0305841 2.0804828-.0200119.5194056-.0941124 1.0368086-.1108204 1.5562142-.0313393.9707267-.0385133 1.9422163-.0555989 2.9135151.0041534 0 .0083068.0000954.0124602.0001907zm-5.406421-11.3488965c-.0633626-1.4502797 1.1231849-2.4420207 2.3326001-2.5928558.8361001-.1043591 1.5722493.1256645 2.2097816.6687652.0522146.0444964.1032858.0908782.1511174.1400882.9055607.9315011.9514866 2.8275929-.1311082 3.8183912-1.3911181 1.2730484-3.5296287.7786863-4.3130378-.7649227-.2083819-.4105543-.2690765-.8432626-.2493531-1.2694661z" fill-opacity=".8" fill-rule="evenodd"/></svg>