<svg height="60" viewBox="0 0 59 60" width="59" xmlns="http://www.w3.org/2000/svg"><path d="m54.5497922 20.7031401c.0111271-.8713226-.4269131-1.6870506-1.1593989-2.1590584l-21.6163484-15.02580978c-.6237062-.36516736-1.3389812-.54398611-2.0611537-.5152884-.7380608-.02430377-1.468693.15389919-2.1126824.5152884l-8.1415567 5.15288402v-1.03057681c0-1.73652191-1.0305769-1.92202574-1.4994893-1.92202574-.0979048 0-.1545865 0-.2627971 0h-.1494336-5.6114907c-1.9271786.01545866-2.78255738.9996595-2.78255738 1.92202574v8.34767207l-3.76675822 2.576442c-.84981753.5618617-1.36829819 1.506306-1.3861258 2.5249132v24.836901c0 2.7310285 1.91687285 4.6375956 4.4160216 4.6375956h15.3555944l.6595691.9069076c1.8601912 2.5249131 3.2720814 4.1996005 3.4266679 4.3799514l.4740653.4483009c.3061897.3142506.7379751.4733294 1.1748576.4328423.4368825.0404871.8686679-.1185917 1.1748575-.4328423l.4792183-.5152884c.1906567-.2267269 1.9374843-2.2260459 4.1223072-5.2507888h15.948176c1.066647 0 3.2669285-.4534538 3.2669285-4.6375956zm-24.5534923 34.163621-.4792182.5616644-.4740654-.5616644c-.1700451-.2009624-1.5458652-1.8395795-3.3596804-4.2975052l-.6956393-.9584364-.0515288-.0721404-.7162509-1.0305768c-3.8131342-5.4517513-8.4610356-13.330511-8.4610356-19.282092 0-7.8581481 6.1834608-14.2477243 13.7839648-14.2477243 7.6005039 0 13.7530474 6.3895762 13.7839647 14.2425714.0257644 5.951581-4.6375956 13.8303407-8.4610355 19.2769391l-.7059451.9945066-.0721404.1030577-.7162509.9687422c-1.8086623 2.4579257-3.199941 4.1016957-3.3699861 4.3026581zm.7265566-23.2601184c1.1017165-.6829814 1.7706571-1.8882445 1.7674392-3.1844823.0114273-1.7880626-1.4273568-3.2475983-3.2153996-3.2617756-.8513524-.0041129-1.6692469.3312063-2.2726998.931758s-.9427098 1.4168207-.9426998 2.268183c0 1.3345969.8141557 2.8495448 1.9735546 3.3390688l-1.9890133 7.0130752h6.6987492z" fill-opacity=".8"/></svg>