<svg height="60" viewBox="0 0 27 60" width="27" xmlns="http://www.w3.org/2000/svg"><path d="m15.0311352 48.6038393c3.8016302.2103681 6.7038046 1.3299011 6.7038046 2.6801029 0 1.5000256-3.5817487 2.7160578-7.9999637 2.7160578-4.41828767 0-8.00003634-1.2160322-8.00003634-2.7160578 0-1.353061 2.9143213-2.4745955 6.72788024-2.6815326l1.2995049 3.208275zm4.6285239-28.2822796c2.071532 1.7224202 3.3905903 4.315124 3.3905903 7.2158323 0 1.8529378-.5401919 3.5790585-1.468854 5.0343231h.002782c-.0058492.0074724-.0115557.0150871-.0173335.0226307-.2366059.3683529-.4978925.7190568-.782219 1.0499055-5.2663178 7.3557438-7.14604 15.9220138-7.14604 15.9220138s-1.8797222-8.56627-7.14604001-15.9220138c-.28432652-.3308487-.54568437-.6815526-.78221893-1.0499055-.00584917-.0075436-.01148434-.0151583-.01733351-.0226307h.00278192c-.92866207-1.4552646-1.46885393-3.1813853-1.46885393-5.0343231 0-2.9007083 1.31898689-5.4934121 3.3905189-7.2158323-.95990518-1.1757262-2.83092493-3.7053773-3.35071604-6.1320519-.70831971-3.3069213-.03074379-7.63940965 2.3313919-8.14297718 2.36213568-.50356752 4.7553718 3.17419761 5.4636915 6.48111898.4065171 1.8980567.0840283 4.1906554-.2644251 5.8007762.595545-.1178501 1.21092-.1808317 1.8412033-.1808317.630212 0 1.245587.0629816 1.8411319.1808317-.3484533-1.6101208-.6709421-3.9027195-.2643537-5.8007762.7082484-3.30692137 3.1015558-6.9846865 5.4636202-6.48111898 2.362207.50356753 3.0397116 4.83605588 2.3313919 8.14297718-.5197198 2.4266034-2.3908109 4.9562545-3.3507161 6.1320519zm-6.0211049 9.9675969c1.4904886 0 2.6987952-1.2082905 2.6987952-2.6987593 0-1.4905405-1.2083066-2.698831-2.6987952-2.698831-1.4905602 0-2.6987952 1.2082905-2.6987952 2.698831 0 1.4904688 1.208235 2.6987593 2.6987952 2.6987593zm-6.28963868-20.60957983c-1.0074674.21436048-1.23300702 2.35362983-.87852642 4.00497323.35448059 1.6513433 2.09354168 4.8455705 2.09354168 4.8455705l1.3097576-.2786118s.27580232-3.622877-.07867827-5.2742204c-.3544806-1.6512723-1.43862718-3.51200095-2.44609459-3.29771153zm10.13318448 3.29771153c-.3544838 1.6513434-.078679 5.2742204-.078679 5.2742204l1.309698.2786118s1.7391482-3.1942272 2.093632-4.8455705c.3544124-1.6513434.1289421-3.79061275-.8786058-4.00497323-1.0074051-.21428942-2.0916328 1.64643923-2.4460452 3.29771153z" fill-rule="evenodd"/></svg>