<?xml version="1.0" encoding="UTF-8"?>
<svg width="100px" height="249px" viewBox="0 0 100 249" version="1.1" xmlns="http://www.w3.org/2000/svg" xmlns:xlink="http://www.w3.org/1999/xlink">
    <!-- Generator: Sketch 49.1 (51147) - http://www.bohemiancoding.com/sketch -->
    <title>studiohop-icon</title>
    <desc>Created with Sketch.</desc>
    <defs></defs>
    <g id="studiohop-icon" stroke="none" stroke-width="1" fill="none" fill-rule="evenodd">
        <path d="M57.2240139,221.007416 C76.9449705,222.098701 92,227.906279 92,234.91045 C92,242.691833 73.4196788,249 50.5001887,249 C27.5803212,249 9,242.691833 9,234.91045 C9,227.891446 24.1180418,222.073486 43.9008787,221 L50.6420606,237.642926 L57.2240139,221.007416 Z M81.2344818,74.2930912 C91.9805541,83.2281456 98.8231686,96.6777965 98.8231686,111.725221 C98.8231686,121.337336 96.0209233,130.291587 91.2034888,137.840772 L91.21792,137.840772 C91.1875775,137.879535 91.157975,137.919036 91.1280025,137.958169 C89.9006094,139.869 88.5451856,141.688276 87.0702418,143.404554 C59.7512179,181.562474 50.0001592,226 50.0001592,226 C50.0001592,226 40.2491004,181.562474 12.9300766,143.404554 C11.4551328,141.688276 10.0993389,139.869 8.87231591,137.958169 C8.84197336,137.919036 8.8127409,137.879535 8.78239836,137.840772 L8.79682957,137.840772 C3.97939507,130.291587 1.17714978,121.337336 1.17714978,111.725221 C1.17714978,96.6777965 8.01939429,83.2281456 18.7654666,74.2930912 C13.7859585,68.1940112 4.08004352,55.0714461 1.38362712,42.4830719 C-2.2907814,25.3284173 1.22414373,2.85363414 13.4777226,0.241377611 C25.7313015,-2.37087892 38.1462139,16.7075277 41.8206224,33.8621824 C43.9294295,43.7083517 42.256519,55.601207 40.4489172,63.953709 C43.5383066,63.3423612 46.7305647,63.0156445 50.0001592,63.0156445 C53.2693837,63.0156445 56.4616417,63.3423612 59.5510311,63.953709 C57.7434294,55.601207 56.0705189,43.7083517 58.179696,33.8621824 C61.8537345,16.7075277 74.2690169,-2.37087892 86.5222258,0.241377611 C98.7761747,2.85363414 102.29073,25.3284173 98.6163212,42.4830719 C95.9202749,55.0710769 86.2139899,68.193642 81.2344818,74.2930912 Z M50,126 C57.7319095,126 64,119.731993 64,112.000186 C64,104.268007 57.7319095,98 50,98 C42.2677186,98 36,104.268007 36,112.000186 C36,119.731993 42.2677186,126 50,126 Z M17.3724993,19.0878045 C12.1462621,20.1997995 10.9762754,31.2972592 12.8151434,39.863603 C14.6540115,48.4299467 23.6753909,65 23.6753909,65 L30.4697585,63.5547014 C30.4697585,63.5547014 31.900483,44.7610267 30.0616149,36.194683 C28.2227469,27.628708 22.5987364,17.9761781 17.3724993,19.0878045 Z M69.9383935,36.194683 C68.0995089,44.7610267 69.5302463,63.5547014 69.5302463,63.5547014 L76.3243049,65 C76.3243049,65 85.3461361,48.4299467 87.1850208,39.863603 C89.0235351,31.2972592 87.8539082,20.1997995 82.6272535,19.0878045 C77.4013395,17.9761781 71.7769079,27.628708 69.9383935,36.194683 Z" id="Combined-Shape" fill="#FFFFFE"></path>
    </g>
</svg>