<svg height="60" viewBox="0 0 115 60" width="115" xmlns="http://www.w3.org/2000/svg"><g fill="#fefefe" fill-rule="evenodd"><path d="m84.1028812 12.2327586h-6.1233271l-1.1892315 4.6523252h6.123915l-4.1946476 16.4769852h4.7102818l4.1948436-16.4769852h5.125768c1.2590018 0 2.3571007-.8426524 2.6653837-2.0501246l.6647781-2.6022006h-7.2672863z"/><path d="m65.2290605 26.0396968 2.2904676-9.133096 1.1707048-4.6738422h-4.6378591l-1.1707048 4.6699653-2.2902746 9.1237913-.6691947 2.6648131-.5017031 2.0026322c-.3390355 1.3511127.6776851 2.6681085 2.0648941 2.6681085h1.9045421 9.2880678c1.5118629 0 2.8303772-1.0363055 3.2002868-2.5091541l.0395573-.151976.5015101-1.9911951h-11.859489z"/><path d="m60.8387097 12.2327586h-4.7081841l-1.1884565 4.6697715-2.3250025 9.1315451-.6793419 2.6756686h-7.3311333l.6793419-2.670047 2.3251985-9.1332898 1.1884565-4.6736484h-4.708184l-1.1884566 4.6697715-2.3251984 9.1237912-.679146 2.6648132-.5093105 2.0026321c-.3443723 1.3513066.687961 2.6683024 2.0960087 2.6683024h1.933617 7.3311332 1.9334211c1.6313608 0 3.0541002-1.1016319 3.4533213-2.6669455l.5091146-1.9987552.679146-2.66365 2.3251985-9.1296067z"/><path d="m32.6743068 25.9958874h-7.2513287l2.2996933-9.1108036h7.2515225zm8.1321448-13.7631288h-4.6567384-7.2515225-.5545305c-2.4120719 0-4.5158775 1.6502185-5.1062529 3.9901443l-.1714743.6850549-2.2996933 9.1210774-1.1755194 4.6647314-.6713655 2.6683024h4.6567384l.6713656-2.7138564h7.2513287l-.6713655 2.7138564h4.6569321l.6711718-2.6669455 1.1755193-4.6612421 2.2998871-9.1301883z"/><path d="m114.753499 6.69933621-2.190059-2.16543104h-3.831582-1.191447l-1.141049-4.46120689h-3.523553-1.153114-2.6549234l2.9014634.96362069.894315 3.4975862h-81.5062014c-1.8946785 0-3.5482657 1.27765086-4.0166329 3.10849138l-.3961759 1.55676724-4.9533672 19.38646551h-.9186379c-.8483926 0-1.5887902-.5818965-1.79855331-1.4017888l-4.22036379-16.5173276c-.22182741-.86644393-1.00483926-1.47743531-1.90226735-1.47743531h-3.15131133l4.95336717 19.38045261.39345178 1.557737c.46311337 1.828125 2.11203045 3.1135345 4.00320643 3.1135345h6.137225l1.1807445-4.6664224 4.5797632-17.921444c.2198815-.85984909.9962775-1.46385771 1.8861167-1.46385771h79.7294413l-.89412 3.49758621-2.9014634.9636207h2.6549234 1.153114 3.523553l1.14066-4.46120691h1.191836 3.831582l2.346506-2.33709052z"/><g transform="translate(13.354839 38.922414)"><path d="m2.24594462 3.37346311v-.69753707c-.22931984-.29617723-.59345195-.44087598-.98458622-.44087598-.53289563 0-.89047575.33549965-.89047575.78954766 0 .4476557.35758012.78315534.89047575.78315534.39113427 0 .75526638-.14469874.98458622-.43428995zm0 .62528456v-.37520948c-.28987616.30934927-.65420682.45404802-1.10609596.45404802-.55989779 0-1.13984866-.37520948-1.13984866-1.05957451 0-.69075735.57339887-1.05279478 1.13984866-1.05279478.45188914 0 .82277179.14508616 1.10609596.45404802v-.64484891c0-.47361237-.39113427-.73027347-.87002558-.73027347-.41138589 0-.72846276.13791902-1.02508947.46722005l-.19576568-.23709674c.3373285-.35525771.71496169-.53288656 1.25460786-.53288656.66095736 0 1.18710244.30934927 1.18710244 1.02005838v2.23730998z"/><path d="m10.5706164 4.07758621-1.29642285-3.3362069h.36853578l1.11851547 2.91491115 1.1057944-2.91491115h.3748963l-1.2964228 3.3362069z"/><path d="m19.3877733 4.07758621h.3617549v-3.08702231h-.3617549zm-.0974507-3.828299c0-.14072968.1322545-.24928721.2782258-.24928721.1529321 0 .2782258.10855753.2782258.24928721 0 .14054155-.1252937.25568402-.2782258.25568402-.1459713 0-.2782258-.11514247-.2782258-.25568402z"/><path d="m29.3267883 3.37346311v-.69753707c-.2293198-.29617723-.5936505-.44087598-.9847847-.44087598-.5328957 0-.8902772.33549965-.8902772.78954766 0 .4476557.3573815.78315534.8902772.78315534.3911342 0 .7554649-.14469874.9847847-.43428995zm0 .62528456v-.37520948c-.2900747.30934927-.6542068.45404802-1.1060959.45404802-.5598978 0-1.1400472-.37520948-1.1400472-1.05957451 0-.69075735.5733988-1.05279478 1.1400472-1.05279478.4518891 0 .8227718.14508616 1.1060959.45404802v-.64484891c0-.47361237-.3913328-.73027347-.8700256-.73027347-.4115844 0-.7284627.13791902-1.025288.46722005l-.1955671-.23709674c.3371299-.35525771.7149617-.53288656 1.2546079-.53288656.6609573 0 1.1869039.30934927 1.1869039 1.02005838v2.23730998z"/><path d="m36.9321121 3.39466997v-2.23733085h-.5772734v-.29905107h.5772734v-.85828805h.3826534v.85828805h.7073034v.29905107h-.7073034v2.18544683c0 .25367648.1153697.42943121.3607694.42943121.1659369 0 .3104146-.07160378.3896648-.14990844l.1444777.26037737c-.1370413.11697836-.3031907.19490012-.5917211.19490012-.4621162 0-.6858442-.25348503-.6858442-.68291624"/><path d="m44.9845475 4.07758621h.3617549v-3.08702231h-.3617549zm-.0974507-3.828299c0-.14072968.1320497-.24928721.2782258-.24928721.152932 0 .2782258.10855753.2782258.24928721 0 .14054155-.1252938.25568402-.2782258.25568402-.1461761 0-.2782258-.11514247-.2782258-.25568402z"/><path d="m55.287044 2.4062866c0-.7043168-.4031174-1.35555802-1.1321554-1.35555802-.7162346 0-1.1257536.65124122-1.1257536 1.35555802 0 .71051541.409519 1.36214405 1.1257536 1.36214405.729038 0 1.1321554-.65162864 1.1321554-1.36214405m-2.6096246 0c0-.92785409.575586-1.66490729 1.4774692-1.66490729.9146867 0 1.4902727.7370532 1.4902727 1.66490729 0 .92766039-.575586 1.67129961-1.4902727 1.67129961-.9018832 0-1.4774692-.74363922-1.4774692-1.67129961"/><path d="m65.3041606 4.07758621v-2.20390046c0-.62696484-.3229537-.81564951-.8038453-.81564951-.4258864 0-.865524.26269033-1.0786694.55950659v2.46004338h-.3571298v-3.25545541h.3571298v.49204835c.240648-.2829278.714664-.57279984 1.1955556-.57279984.6732077 0 1.0440888.32340275 1.0440888 1.05810237v2.27810453z"/></g></g></svg>