<svg height="50" viewBox="0 0 50 50" width="50" xmlns="http://www.w3.org/2000/svg"><path d="m32.8495541 29.1053685-1.4221611 5.3396925c-.2339743.881903-1.036386 1.4923359-1.9497855 1.4878364-.9118997-.0074992-1.7053125-.6314306-1.927288-1.5163332 0 0-.7944765-3.1807671-1.7331524-6.9343481-.1704242-.0464617-.340726-.092985-.5109008-.1394738-.2862648-.0781257-.5732958-.1564637-.8609741-.2344999-.9795317 3.9138182-1.8294299 7.3083218-1.8294299 7.3083218-.2204758.881903-1.0078892 1.5043345-1.9167892 1.5163332-.9089.008999-1.7113118-.5924349-1.954285-1.4683385l-2.5071652-9.0519833c-.6717522-.0619289-1.3409603-.0961104-2.0061384-.0961104-5.24733825 0-8.84076381 2.135262-10.226925 3.1277117v7.1439084c0 5.736869 4.66598674 10.4043555 10.4013558 10.4043555h21.1881694c5.7353691 0 10.4013558-4.6674865 10.4013558-10.4043555v-8.6234228c-4.371239 2.6228409-8.7777488 2.819897-13.1458864 2.140706zm1.0368839-3.8931181c4.2329099.5872356 8.1969108.1014995 12.1090025-3.1547823v-7.6515528c0-5.73536906-4.6659867-10.40285564-10.4013558-10.40285564h-21.1881694c-5.73536906 0-10.4013558 4.66748658-10.4013558 10.40285564v9.3547691c2.32174599-1.2063618 5.78992971-2.4487787 10.226925-2.4487787.2923151 0 .5838853.0053752.8747177.0157373l-1.2433771-4.4891452c-.2954675-1.0663827.3299637-2.1687615 1.3948466-2.464229 1.0648828-.2954675 2.1687614.3299637 2.4642289 1.3948466 0 0 .7433714 2.6841857 1.6714722 6.0357194.7187326.1276302 1.4329566.2748707 2.142788.4354051.8835078-3.5298829 1.6076434-6.4231298 1.6076434-6.4231298.2234754-.890902 1.0228875-1.5148334 1.9422863-1.5148334.9193989 0 1.718811.6254313 1.9422864 1.5148334 0 0 1.0112245 4.0460739 2.1008275 8.4047552.2754067.0707076.5494847.1396872.8222853.2065386 1.1840667-4.4483521 2.3008125-8.6397906 2.3008125-8.6397906.2849687-1.0693824 1.3813481-1.7038126 2.4492306-1.418844 1.0693824.2834688 1.7053124 1.3798482 1.4203438 2.4492306zm-19.4805227-25.2122504h21.1881694c7.9431262 0 14.4059153 6.46278909 14.4059153 14.4059153v21.18217c0 7.9461259-6.4627891 14.408915-14.4059153 14.408915h-21.1881694c-7.94312621 0-14.4059153-6.4627891-14.4059153-14.408915v-21.18217c0-7.94312621 6.46278909-14.4059153 14.4059153-14.4059153z" fill="#fff" fill-rule="evenodd"/></svg>