<svg height="40" viewBox="0 0 175 40" width="175" xmlns="http://www.w3.org/2000/svg"><g fill="none" fill-rule="evenodd"><path d="m0 0h175v40h-175z"/><g transform="translate(7 7)"><g fill="#fefbf7" transform="translate(71.604938 .25)"><path d="m2.66666667 23.925h-2.66666667l2.91358025-21.25h-2.7654321l.37037037-2.575h8.14814815l-.37037037 2.575h-2.7654321z"/><path d="m14.4691358.1h2.6419753l-3.2839506 23.825-2.6419753-.025z"/><path d="m26.1975309.1.2716049 19.475 5.7283951-19.475h3.3086419l-3.3333333 24.1h-2.4444444l1.1111111-8.225c.3703703-2.675 1.2098765-7.925 1.6296296-10.3l-5.308642 18.4-2.5185185-.15-.2716049-18.3c-.3950618 2.85-.7901235 7.1-1.2098766 10.325l-1.0864197 7.975h-2.4444445l3.2839506-23.825z"/><path d="m40.962963 21.6h4.3209876l-.345679 2.575h-6.962963l3.3333334-24.1h6.9629629l-.3703703 2.6h-4.3209877l-1.1358025 8.075h3.7283951l-.345679 2.475h-3.7283951z"/></g><path d="m62.2469136.35 37.1604938 24.075h-47.4567901l3.3333333-24.075z" fill="#f7941d"/><g fill="#fefbf7"><path d="m6.12345679 17.625c.96296296-6.85-5.06172839-4.1-4.07407407-11.25l.29629629-2.125c.34567901-2.5 1.48148148-4.25 4.74074074-4.25 3.25925925 0 3.90123455 1.75 3.58024695 4.225l-.3703704 2.65h-2.66666667l.37037037-2.65c.14814815-1.025-.07407407-1.825-1.25925926-1.825-1.18518518 0-1.60493827.8-1.72839506 1.825l-.27160494 2.025c-.81481481 5.825 5.20987654 3.1 4.07407407 11.25l-.44444444 3.025c-.34567901 2.475-1.45679012 4.225-4.71604938 4.225s-3.90123457-1.725-3.58024692-4.2l.44444445-3h2.64197531l-.44444445 3c-.14814815 1.025.07407408 1.825 1.25925926 1.825 1.18518519 0 1.60493827-.8 1.72839506-1.825z"/><path d="m16.5679012.35h4.271605c3.2839506 0 3.8518518 1.675 3.5061728 4.15l-.7901234 5.5c-.3456791 2.475-1.4320988 4.1-4.6913581 4.1h-1.5555555l-1.4320988 10.325h-2.6419753zm2.617284 11.275c1.1851852 0 1.6049383-.575 1.728395-1.625l.7901235-5.5c.1481482-1.025-.1481481-1.575-1.3333333-1.575h-1.5308642l-1.1851852 8.7z"/><path d="m34.4444444 24.425h-2.691358l.1728395-5.225h-3.0617284l-1.2592592 5.225h-2.6666667l6.4197531-24.1h3.3333333zm-4.9876543-7.7h2.5432099l.4691358-12.425z"/><path d="m45.3580247 17.55h2.5925926l-.4444445 3c-.345679 2.475-1.6296296 4.225-4.691358 4.225-3.2592592 0-3.9506173-1.75-3.6049383-4.225l2.271605-16.325c.345679-2.475 1.4814815-4.225 4.7654321-4.225 3.0617284 0 3.8765432 1.75 3.5308642 4.225l-.3703704 2.65h-2.5925926l.3703704-2.65c.1481481-1.025-.0987654-1.825-1.2839506-1.825s-1.6296297.8-1.7777778 1.825l-2.2716049 16.325c-.1481482 1.025.0987654 1.825 1.2839506 1.825s1.6296296-.8 1.7777777-1.825z"/><path d="m54.9382716 21.85h4.3209877l-.3456791 2.575h-6.9629629l3.3333333-24.1h6.962963l-.3703704 2.575h-4.3209876l-1.1111112 8.1h3.7283951l-.345679 2.475h-3.7283951z"/></g></g></g></svg>