<svg height="40" viewBox="0 0 175 40" width="175" xmlns="http://www.w3.org/2000/svg" xmlns:xlink="http://www.w3.org/1999/xlink"><defs><path id="a" d="m62.705 17.14c-.2200011-.2800014-.5074982-.5024992-.8625-.6675s-.6974983-.2475-1.0275-.2475c-.1700008 0-.3424991.0149999-.5175.045-.1750009.0300002-.3324993.0874996-.4725.1725s-.2574995.1949993-.3525.33-.1425.3074989-.1425.5175c0 .1800009.0374996.3299994.1125.45s.1849993.2249995.33.315.317499.1724996.5175.2475.4249988.1524996.675.2325c.3600018.1200006.7349981.2524993 1.125.3975.390002.1450007.7449984.3374988 1.065.5775s.584999.5374982.795.8925c.2100011.3550018.315.7974974.315 1.3275 0 .610003-.1124989 1.1374978-.3375 1.5825s-.5274981.8124986-.9075 1.1025c-.3800019.2900015-.8149975.5049993-1.305.645-.4900024.1400007-.9949974.21-1.515.21-.7600038 0-1.4949964-.1324987-2.205-.3975-.7100035-.2650013-1.2999976-.6424975-1.77-1.1325l1.68-1.71c.2600013.3200016.6024979.5874989 1.0275.8025s.8474979.3225 1.2675.3225c.190001 0 .3749991-.0199998.555-.06s.3374993-.1049995.4725-.195c.1350007-.0900004.2424996-.2099992.3225-.36.0800004-.1500007.12-.3299989.12-.54 0-.200001-.0499995-.3699993-.15-.51s-.2424991-.2674994-.4275-.3825-.4149986-.2199995-.69-.315-.5874982-.1974994-.9375-.3075c-.3400017-.1100006-.6724984-.2399993-.9975-.39s-.6149987-.3424988-.87-.5775-.4599992-.5199983-.615-.855-.2325-.7424976-.2325-1.2225c0-.590003.1199988-1.0949979.36-1.515s.5549981-.7649987.945-1.035c.390002-.2700013.8299976-.4674994 1.32-.5925.4900025-.1250006.9849975-.1875 1.485-.1875.600003 0 1.2124969.1099989 1.8375.33s1.1724977.5449978 1.6425.975zm14.31.51c0 .6200031-.1149988 1.1424979-.345 1.5675-.2300011.4250021-.539998.7674987-.93 1.0275-.3900019.2600013-.8399974.4499994-1.35.57-.5100025.1200006-1.0399972.18-1.59.18h-1.275v4.005h-2.565v-10.62h3.9c.5800029 0 1.1224975.0574994 1.6275.1725s.9449981.2999987 1.32.555.6699989.5899979.885 1.005.3225.9274969.3225 1.5375zm-2.565.015c0-.2500012-.0499995-.4549992-.15-.615s-.2349992-.2849995-.405-.375c-.1700009-.0900005-.3624989-.1499998-.5775-.18-.2150011-.0300001-.4374989-.045-.6675-.045h-1.125v2.505h1.08c.2400012 0 .4699989-.0199998.69-.06s.4174991-.1099995.5925-.21.3124995-.2324992.4125-.3975.15-.3724987.15-.6225zm13.41 7.335-.825-2.085h-4.11l-.78 2.085h-2.79l4.455-10.62h2.49l4.41 10.62zm-2.85-7.785-1.35 3.645h2.67zm18.66 6.315c-.470002.5400027-1.049997.9674984-1.74 1.2825s-1.484995.4725-2.385.4725c-.8200041 0-1.5774965-.1349987-2.2725-.405s-1.2974974-.6524975-1.8075-1.1475c-.5100025-.4950025-.9099985-1.0874966-1.2-1.7775-.2900014-.6900035-.435-1.4499959-.435-2.28 0-.8500043.1474985-1.6199966.4425-2.31.2950015-.6900035.7024974-1.2774976 1.2225-1.7625s1.1299965-.8574987 1.83-1.1175 1.454996-.39 2.265-.39c.750004 0 1.487496.1324987 2.2125.3975s1.312498.6524974 1.7625 1.1625l-1.74 1.74c-.240001-.3300017-.554998-.5749992-.945-.735s-.789998-.24-1.2-.24c-.4500022 0-.8624981.0824992-1.2375.2475s-.6974986.3924985-.9675.6825c-.2700013.2900014-.4799992.632498-.63 1.0275-.1500007.395002-.225.8274976-.225 1.2975 0 .4800024.0749993.919998.225 1.32.1500008.400002.3574987.7424986.6225 1.0275s.5824982.5074992.9525.6675c.3700019.1600008.7749978.24 1.215.24.510003 0 .954998-.099999 1.335-.3s.684999-.4599984.915-.78zm4.095 1.47v-10.62h7.14v2.175h-4.665v1.995h4.41v2.055h-4.41v2.205h4.935v2.19zm16.65-8.43v8.43h-2.565v-8.43h-3v-2.19h8.565v2.19zm7.17 8.43v-10.62h2.58v10.62zm17.4 0 .06-7.515h-.045l-2.76 7.515h-1.8l-2.685-7.515h-.045l.06 7.515h-2.415v-10.62h3.645l2.415 6.81h.06l2.31-6.81h3.705v10.62zm7.695 0v-10.62h7.14v2.175h-4.665v1.995h4.41v2.055h-4.41v2.205h4.935v2.19zm-125.1756864 4.6882274-3.1215666-1.2500644c-.8781165-.3518282-1.8177345.3480743-1.7326748 1.290315l.3018786 3.3499806c.1163317 1.2882294-1.5440006 1.9026254-2.2939021.8490177l-1.9503276-2.7397557c-.5487186-.7706019-1.7174558-.6901006-2.1552632.1484895l-1.556301 2.9814681c-.5983367 1.1464137-2.3272589.7653881-2.3887604-.5261783l-.1601124-3.3597825c-.0448232-.9451604-1.0715857-1.5095038-1.8934127-1.0406775l-2.9203837 1.6663353c-1.1230801.6408822-2.37145657-.6146045-1.72516949-1.734532l1.68118029-2.9130629c.472832-.8191946-.0858936-1.8492359-1.0305151-1.8992886l-3.35735717-.1776868c-1.2911148-.0684052-1.66283411-1.799809-.51369399-2.3920984l2.98855654-1.5414123c.84059012-.4335809.92710922-1.6023097.15948697-2.1551827l-2.72837387-1.9653998c-1.04927834-.7555861-.42613251-2.4131622.86060422-2.2901162l3.3471416.3195026c.9417028.0900947 1.6461557-.846515 1.2992455-1.7266071l-1.2331574-3.12891475c-.4742913-1.20334856.9456639-2.26071029 1.961794-1.46132813l2.6428972 2.07926948c.7436471.5847815 1.8423351.178104 2.0262142-.74995515l.6535839-3.29930228c.251218-1.26862552 2.017458-1.39021169 2.4402549-.16830196l1.0995219 3.17855032c.3095924.89406504 1.4535205 1.14620517 2.1100231.46486377l2.3328879-2.42213001c.8970881-.9311874 2.4483856-.07862433 2.1435883 1.17832224l-.7926399 3.26885357c-.2228648.9192999.6033403 1.7501735 1.5235697 1.5318189l3.271672-.7756071c1.2579665-.2984388 2.1023093 1.2581979 1.1666524 2.1505945l-2.4333751 2.320982c-.6846473.6529782-.4384328 1.7987662.4536518 2.113055l3.1716018 1.1165907c1.2196062.4294098 1.088681 2.1954333-.180752 2.4402741l-3.301693.6365025c-.9287771.1791467-1.3411499 1.2759249-.7603255 2.0227518l2.064783 2.6548747c.7936822 1.0206565-.2708151 2.4356859-1.4710328 1.9549722z"/><mask id="b" fill="#fff"><use fill="none" xlink:href="#a"/></mask></defs><g fill="none" fill-rule="evenodd"><path d="m0 0h175v40h-175z"/><g fill="#fff"><use xlink:href="#a"/><g mask="url(#b)"><path d="m0 0h175v40h-175z"/></g></g></g></svg>