<svg height="40" viewBox="0 0 175 40" width="175" xmlns="http://www.w3.org/2000/svg" xmlns:xlink="http://www.w3.org/1999/xlink"><mask id="a" fill="#fff"><path d="m6.705 3.14c-.2200011-.2800014-.50749822-.50249918-.8625-.6675-.35500177-.16500083-.69749835-.2475-1.0275-.2475-.17000085 0-.34249912.01499985-.5175.045-.17500087.03000015-.3324993.08749957-.4725.1725-.1400007.08500042-.25749952.19499932-.3525.33-.09500047.13500068-.1425.30749895-.1425.5175 0 .1800009.03749963.3299994.1125.45.07500038.1200006.18499928.22499955.33.315.14500073.09000045.317499.17249962.5175.2475.200001.07500037.42499875.1524996.675.2325.3600018.1200006.73499805.25249928 1.125.3975s.7449984.3374988 1.065.5775.58499895.53749822.795.8925.315.79749735.315 1.3275c0 .61000305-.11249887 1.13749777-.3375 1.5825-.22500112.44500222-.5274981.8124986-.9075 1.1025-.3800019.2900015-.81499755.5049993-1.305.645s-.9949974.21-1.515.21c-.7600038 0-1.49499645-.1324987-2.205-.3975s-1.29999765-.6424975-1.77-1.1325l1.68-1.71c.2600013.3200016.60249788.58749892 1.0275.8025.42500213.21500107.8474979.3225 1.2675.3225.19000095 0 .3749991-.0199998.555-.06s.33749933-.10499955.4725-.195c.13500068-.09000045.2424996-.20999925.3225-.36s.12-.32999895.12-.54c0-.200001-.0499995-.3699993-.15-.51s-.24249907-.26749942-.4275-.3825c-.18500092-.11500058-.41499862-.21999953-.69-.315-.27500137-.09500047-.58749825-.19749945-.9375-.3075-.3400017-.11000055-.67249837-.23999925-.9975-.39-.32500162-.15000075-.61499872-.34249883-.87-.5775-.25500127-.23500118-.45999922-.51999833-.615-.855-.15500077-.33500168-.2325-.7424976-.2325-1.2225 0-.59000295.1199988-1.0949979.36-1.515s.55499805-.76499865.945-1.035.82999755-.46749937 1.32-.5925c.49000245-.12500062.9849975-.1875 1.485-.1875.600003 0 1.21249688.1099989 1.8375.33.62500313.2200011 1.17249765.54499785 1.6425.975zm14.31.51c0 .6200031-.1149988 1.14249788-.345 1.5675-.2300011.42500212-.539998.7674987-.93 1.0275-.3900019.2600013-.8399974.4499994-1.35.57-.5100025.1200006-1.0399972.18-1.59.18h-1.275v4.005h-2.565v-10.62h3.9c.5800029 0 1.1224975.05749943 1.6275.1725.5050025.11500058.9449981.29999873 1.32.555s.6699989.58999792.885 1.005c.2150011.41500207.3225.92749695.3225 1.5375zm-2.565.015c0-.25000125-.0499995-.4549992-.15-.615s-.2349991-.28499955-.405-.375c-.1700008-.09000045-.3624989-.14999985-.5775-.18s-.4374988-.045-.6675-.045h-1.125v2.505h1.08c.2400012 0 .4699989-.0199998.69-.06s.4174991-.1099995.5925-.21.3124995-.23249918.4125-.3975c.1000005-.16500083.15-.37249875.15-.6225zm13.41 7.335-.825-2.085h-4.11l-.78 2.085h-2.79l4.455-10.62h2.49l4.41 10.62zm-2.85-7.785-1.35 3.645h2.67zm18.66 6.315c-.4700023.5400027-1.0499965.9674984-1.74 1.2825-.6900034.3150016-1.4849955.4725-2.385.4725-.8200041 0-1.5774965-.1349987-2.2725-.405-.6950035-.2700014-1.2974974-.6524975-1.8075-1.1475-.5100025-.49500247-.9099985-1.08749655-1.2-1.7775-.2900014-.69000345-.435-1.44999585-.435-2.28 0-.85000425.1474985-1.61999655.4425-2.31s.7024974-1.27749758 1.2225-1.7625c.5200026-.48500243 1.1299965-.8574987 1.83-1.1175s1.454996-.39 2.265-.39c.7500038 0 1.4874964.13249868 2.2125.3975.7250036.26500133 1.3124978.65249745 1.7625 1.1625l-1.74 1.74c-.2400012-.33000165-.554998-.5749992-.945-.735-.3900019-.1600008-.7899979-.24-1.2-.24-.4500022 0-.8624981.08249917-1.2375.2475-.3750019.16500082-.6974986.39249855-.9675.6825-.2700013.29000145-.4799992.63249802-.63 1.0275-.1500007.39500197-.225.82749765-.225 1.2975 0 .4800024.0749993.919998.225 1.32.1500008.400002.3574987.74249857.6225 1.0275.2650013.28500142.5824982.5074992.9525.6675.3700019.1600008.7749978.24 1.215.24.5100026 0 .9549981-.099999 1.335-.3s.6849989-.4599984.915-.78zm4.095 1.47v-10.62h7.14v2.175h-4.665v1.995h4.41v2.055h-4.41v2.205h4.935v2.19zm16.65-8.43v8.43h-2.565v-8.43h-3v-2.19h8.565v2.19zm7.17 8.43v-10.62h2.58v10.62zm17.4 0 .06-7.515h-.045l-2.76 7.515h-1.8l-2.685-7.515h-.045l.06 7.515h-2.415v-10.62h3.645l2.415 6.81h.06l2.31-6.81h3.705v10.62zm7.695 0v-10.62h7.14v2.175h-4.665v1.995h4.41v2.055h-4.41v2.205h4.935v2.19z" fill="none"/></mask><mask id="b" fill="#fff"><path d="m18.4584436 20.0531579 2.7151128 2.7153383c-1.9432331 1.628797-4.3775188 2.6880452-7.0457143 2.9233083v-3.8447368c1.6190977-.2043609 3.1021805-.8418045 4.3306015-1.7939098zm-6.5862857-19.74478196v3.84451128c-1.6188722.20458646-3.10195489.84180451-4.33037595 1.79390977l-2.71533834-2.71533834c1.94345865-1.62857143 4.37774436-2.68804512 7.04571429-2.92308271zm9.301421 2.92319549-2.7151127 2.71533834c-1.2284211-.95210526-2.7117294-1.58954887-4.3306015-1.79390977v-3.84451128c2.6681955.2350376 5.1024812 1.29428572 7.0457142 2.92308271zm.6733985 8.64069927c-.2043609-1.6190978-.8415789-3.10218047-1.7936842-4.33060153l2.7151128-2.71533834c1.6290226 1.94345864 2.6880451 4.37774436 2.9233083 7.04593987zm0 2.2556391h3.8447369c-.2352632 2.6679699-1.2942857 5.1024812-2.9233083 7.0457143l-2.7151128-2.7153384c.9521053-1.228421 1.5893233-2.7115037 1.7936842-4.3303759zm-17.69399996-2.2556391h-3.84473684c.23526316-2.66819551 1.29451128-5.10248123 2.92330827-7.04593987l2.71533835 2.71511278c-.95233083 1.22864662-1.58954887 2.71172929-1.79390978 4.33082709zm.6733985 10.8961353 2.71533835-2.7151128c1.22819548.9521053 2.71150371 1.5893233 4.33037591 1.7939098v3.8445113c-2.6679699-.2352632-5.10225561-1.2945113-7.04571426-2.9233083zm1.12053383-4.3099398-2.71533834 2.7153383c-1.62879699-1.9434586-2.68804511-4.3779699-2.92330827-7.0459398h3.84473684c.2043609 1.6190977.84157895 3.1021804 1.79390977 4.3306015z" fill="none"/></mask><g fill="none" fill-rule="evenodd"><path d="m0 0h175v40h-175z"/><g fill="#fff"><g mask="url(#a)" transform="translate(46 14)"><path d="m0 0h175v40h-175z" transform="translate(-46 -14)"/></g><g mask="url(#b)" transform="translate(8 7)"><path d="m0 0h175v40h-175z" transform="translate(-8 -7)"/></g></g></g></svg>