<svg height="40" viewBox="0 0 175 40" width="175" xmlns="http://www.w3.org/2000/svg" xmlns:xlink="http://www.w3.org/1999/xlink"><defs><path id="a" d="m62.705 17.14c-.2200011-.2800014-.5074982-.5024992-.8625-.6675s-.6974983-.2475-1.0275-.2475c-.1700008 0-.3424991.0149999-.5175.045-.1750009.0300002-.3324993.0874996-.4725.1725s-.2574995.1949993-.3525.33-.1425.307499-.1425.5175c0 .1800009.0374996.3299994.1125.45s.1849993.2249996.33.315c.1450007.0900005.317499.1724996.5175.2475s.4249988.1524996.675.2325c.3600018.1200006.7349981.2524993 1.125.3975.390002.1450007.7449984.3374988 1.065.5775s.584999.5374982.795.8925c.2100011.3550018.315.7974974.315 1.3275 0 .6100031-.1124989 1.1374978-.3375 1.5825s-.5274981.8124986-.9075 1.1025c-.3800019.2900015-.8149975.5049993-1.305.645-.4900024.1400007-.9949974.21-1.515.21-.7600038 0-1.4949964-.1324987-2.205-.3975-.7100035-.2650013-1.2999976-.6424975-1.77-1.1325l1.68-1.71c.2600013.3200016.6024979.5874989 1.0275.8025s.8474979.3225 1.2675.3225c.190001 0 .3749991-.0199998.555-.06s.3374993-.1049995.4725-.195c.1350007-.0900004.2424996-.2099992.3225-.36.0800004-.1500007.12-.3299989.12-.54 0-.200001-.0499995-.3699993-.15-.51s-.2424991-.2674994-.4275-.3825-.4149986-.2199995-.69-.315-.5874982-.1974994-.9375-.3075c-.3400017-.1100005-.6724984-.2399992-.9975-.39-.3250016-.1500007-.6149987-.3424988-.87-.5775s-.4599992-.5199983-.615-.855-.2325-.7424976-.2325-1.2225c0-.5900029.1199988-1.0949979.36-1.515s.5549981-.7649986.945-1.035c.390002-.2700013.8299976-.4674994 1.32-.5925.4900025-.1250006.9849975-.1875 1.485-.1875.600003 0 1.2124969.1099989 1.8375.33s1.1724977.5449979 1.6425.975zm14.31.51c0 .6200031-.1149988 1.1424979-.345 1.5675-.2300011.4250021-.539998.7674987-.93 1.0275-.3900019.2600013-.8399974.4499994-1.35.57-.5100025.1200006-1.0399972.18-1.59.18h-1.275v4.005h-2.565v-10.62h3.9c.5800029 0 1.1224975.0574994 1.6275.1725s.9449981.2999987 1.32.555.6699989.5899979.885 1.005.3225.9274969.3225 1.5375zm-2.565.015c0-.2500013-.0499995-.4549992-.15-.615s-.2349992-.2849996-.405-.375c-.1700009-.0900005-.3624989-.1499999-.5775-.18-.2150011-.0300002-.4374989-.045-.6675-.045h-1.125v2.505h1.08c.2400012 0 .4699989-.0199998.69-.06s.4174991-.1099995.5925-.21.3124995-.2324992.4125-.3975.15-.3724988.15-.6225zm13.41 7.335-.825-2.085h-4.11l-.78 2.085h-2.79l4.455-10.62h2.49l4.41 10.62zm-2.85-7.785-1.35 3.645h2.67zm18.66 6.315c-.470002.5400027-1.049997.9674984-1.74 1.2825s-1.484995.4725-2.385.4725c-.8200041 0-1.5774965-.1349986-2.2725-.405s-1.2974974-.6524975-1.8075-1.1475c-.5100025-.4950025-.9099985-1.0874965-1.2-1.7775-.2900014-.6900035-.435-1.4499959-.435-2.28 0-.8500043.1474985-1.6199966.4425-2.31.2950015-.6900035.7024974-1.2774976 1.2225-1.7625s1.1299965-.8574987 1.83-1.1175 1.454996-.39 2.265-.39c.750004 0 1.487496.1324987 2.2125.3975s1.312498.6524974 1.7625 1.1625l-1.74 1.74c-.240001-.3300017-.554998-.5749992-.945-.735s-.789998-.24-1.2-.24c-.4500022 0-.8624981.0824992-1.2375.2475s-.6974986.3924985-.9675.6825c-.2700013.2900014-.4799992.632498-.63 1.0275-.1500007.395002-.225.8274976-.225 1.2975 0 .4800024.0749993.919998.225 1.32.1500008.400002.3574987.7424986.6225 1.0275s.5824982.5074992.9525.6675c.3700019.1600008.7749978.24 1.215.24.510003 0 .954998-.099999 1.335-.3s.684999-.4599984.915-.78zm4.095 1.47v-10.62h7.14v2.175h-4.665v1.995h4.41v2.055h-4.41v2.205h4.935v2.19zm16.65-8.43v8.43h-2.565v-8.43h-3v-2.19h8.565v2.19zm7.17 8.43v-10.62h2.58v10.62zm17.4 0 .06-7.515h-.045l-2.76 7.515h-1.8l-2.685-7.515h-.045l.06 7.515h-2.415v-10.62h3.645l2.415 6.81h.06l2.31-6.81h3.705v10.62zm7.695 0v-10.62h7.14v2.175h-4.665v1.995h4.41v2.055h-4.41v2.205h4.935v2.19zm-139.8381414-8.2600988c.01712 1.7348296.4793608 3.3403673 1.392429 4.8167915.0502901.0814985.0734735.1797603.1091402.2701755-.0870268-.0429784-.1872503-.0702635-.2592971-.1308969-2.7247596-2.2944406-3.8279315-5.2273155-3.1752304-8.7082098.6712478-3.579156 2.8991699-5.92156829 6.3520658-6.94698669 3.3945807-1.00776337 6.4235775-.15604193 8.9935435 2.28748553.0617035.05849343.1020069.13927857.1521186.20989869-.1351769-.0386984-.2790921-.0593851-.4048173-.11841354-6.0995454-2.86385984-13.181709 1.61267111-13.1599523 8.32015571zm15.7081616 12.6529676c1.5340259-3.4418392 1.5261792-6.7820282-.7903747-9.8937717-2.8121431-3.7778198-7.9618835-4.7959265-12.0492904-2.4494125-.1558636.0895235-.3322355.1432019-.4991558.213287.1096752-.1556853.2059753-.3229622.3311655-.4652724 3.4894543-3.9691718 9.5226595-4.1803188 13.3220576-.4693742 3.6438911 3.5595394 3.4969442 9.5190928-.3220706 13.0634738zm-14.1143047-5.3818773c-5.1950371-.012305-9.00923692-3.3068406-9.61949462-7.7428897-.62042271-4.5077393 2.14464032-8.73567314 6.52166102-9.96849356.1244769-.03513172.2571571-.04066006.3860923-.0599201-.0699068.0773968-.1280435.17173529-.2113253.23022873-3.4398775 2.41642075-4.8462166 6.52968603-3.5691694 10.44910263 1.2454821 3.8225815 4.8893733 6.3800641 8.9906902 6.3133674.1219802-.0019617.2444954.0292467.3668323.0451184-.1109235.0634868-.214357.1594302-.3334839.186002-1.0516335.2343304-2.1061202.4563557-2.5318026.5474842zm2.3754753 10.9889364c-.2913971-.0618817-1.1226102-.2386104-1.9538233-.415339.6978195-.1456986 1.4075874-.2494888 2.0914969-.4438724 3.6900796-1.0496718 6.2179588-4.1070236 6.6377562-7.9916652.3819907-3.531541-1.5206509-7.1055253-4.7056896-8.84838-.1330369-.0727601-.2462788-.1815436-.3689723-.2735638.1594303.0103434.3213572.0058851.4777558.0331701 4.6257962.8085647 7.867545 5.0425619 7.4504226 9.7272081-.4092757 4.5990461-4.4178591 8.2311673-9.6289463 8.2124422zm4.3193655-12.3830417c-.0178334 5.173102-3.3897657 8.9860535-7.8989317 9.5754461-4.5011409.588501-8.7606398-2.199032-9.94691514-6.5127443-.02996005-.1089618-.02550171-.2273754-.03691506-.3413306.08203347.0765052.17851196.1426669.24360374.2314771 2.45868582 3.3608757 6.52915106 4.751878 10.36706916 3.5392093 3.9533-1.2492271 6.3927258-4.6270445 6.4699443-8.9552018.0017833-.0971918.0294251-.1942053.0449401-.2913972.0654484.0861352.1683469.1637103.190817.2600105.242177 1.0346917.4715141 2.0724151.5663876 2.4945309zm-3.7962238-17.61688432c.3001355.06081177 1.1370553.22987206 1.973975.39911068-.7031695.15158359-1.417039.26536044-2.1075469.46117078-3.5347509 1.00241336-6.2010171 4.04014849-6.5801544 7.59968786-.4369174 4.1014952 1.2082104 7.1864888 4.7386813 9.2876157.0973702.0579584.183327.1346419.2748122.202587-.1082485.0035667-.2195287.02568-.3240322.0082033-4.6461262-.7771779-7.9856019-4.9730117-7.6152029-9.5640328.382169-4.735293 4.343494-8.39737419 9.6394679-8.39434252zm12.0936063 20.02178472c.008025 4.0282001-2.7868197 7.6786896-6.6564812 8.690733-.1105669.0290684-.2288021.029425-.3436489.0433351.0775751-.0795368.1453419-.1724487.234152-.2366488 3.4241841-2.4795508 4.8223198-6.542526 3.5670294-10.3745592-1.2811489-3.9101433-4.8271349-6.4132342-9.027427-6.3766758-.1189485.00107-.2382537-.04173-.3573806-.0638434.1160952-.0599201.2273754-.1328586.3488206-.1777986 5.9196067-2.1927904 12.2224524 2.184587 12.2349357 8.4954577zm-15.1289339 9.3309864c-2.4026891-.0529651-4.4959693-.8722298-6.2472055-2.5326943-.1032552-.0979051-.1794037-.224522-.2680355-.3377639.1332152.0358451.2755255.0522518.3980407.1100319 3.6495978 1.7210979 8.0606803.8196214 10.8048782-2.2118721 2.6771446-2.9571283 3.0798219-7.4142209.9844017-10.8585567-.0704418-.1157385-.1070002-.2521638-.1592519-.3787806.1096751.0716901.2268403.1339285.3279555.2157837 2.95267 2.3900273 4.0663636 6.4376658 2.763458 10.0342986-1.2872122 3.5538327-4.8035948 5.9880868-8.6042412 5.9595534zm4.6286673-11.7270058c-1.5456176 2.3718373-3.8586048 3.4245408-6.5646394 3.6583362-3.743223.3229622-7.3173857-1.8220348-8.88868335-5.2155455-1.56148931-3.3724674-.84904644-7.4390093 1.77584633-10.1100904.09398183-.0957652.22202538-.158182.33437557-.2361138-.04708008.1214452-.08684848.2462788-.14195358.3636223-1.80616305 3.8430898-.79536801 8.3856042 2.45297913 11.0176303 3.1782621 2.5754943 8.0012952 2.7994814 11.0395653.5125309zm3.205137-14.90130888c4.0617268-.01105669 7.6571112 2.70728288 8.7381697 6.60957948.0344184.1244769.0399468.2571571.0588501.3860923-.0847085-.0884534-.183327-.1672769-.2523421-.2666087-2.3078155-3.3202157-6.5138143-4.77185144-10.3579741-3.5718444-3.915315 1.2226554-6.4977644 4.743853-6.4941977 8.85159.0001783.1442719-.0222917.2885438-.0340617.432994-.0807852-.1284002-.187072-.2471704-.2386104-.3860923-2.152487-5.8029765 2.2874855-12.03876869 8.5801662-12.05571038zm-20.13272608 12.02933488c.06687511-.3265289.23843207-1.1634487.40981069-2.0007251.14231024.6765978.25020209 1.3626473.4326374 2.0280101.986185 3.5968111 3.98682679 6.1740888 7.72594809 6.6605829 3.7043462.4818575 7.2688789-1.3182422 9.2191356-4.6521895.0634867-.1084269.1556852-.2000903.234687-.2997788.0017834.1257252.0244317.2551954.0030317.3768189-.8035714 4.5507177-5.1044436 7.86701-9.652843 7.4468559-4.81054979-.4444074-8.39238085-4.3056872-8.37240748-9.5595744zm30.15858948.446369c-.0683018.3197522-.2518071 1.1793204-.4351341 2.0390668-.1391002-.7149395-.2033003-1.4546674-.4296057-2.1408953-1.2313937-3.7369813-3.8054614-6.0276768-7.7043697-6.5079293-4.0312318-.4968375-7.1361987 1.165767-9.2419623 4.6552212-.0572451.0948735-.1417752.173697-.2134653.2600104-.0039234-.1248335-.0297818-.2537687-.00856-.3741439.8123097-4.5854928 5.0650318-7.8431133 9.7056297-7.4386526 4.710683.4107024 8.3057107 4.2725172 8.3274674 9.5073227z"/><mask id="b" fill="#fff"><use fill="none" xlink:href="#a"/></mask></defs><g fill="none" fill-rule="evenodd"><path d="m0 0h175v40h-175z"/><g fill="#fff"><use xlink:href="#a"/><g mask="url(#b)"><path d="m0 0h175v40h-175z"/></g></g></g></svg>