<svg height="40" viewBox="0 0 175 40" width="175" xmlns="http://www.w3.org/2000/svg" xmlns:xlink="http://www.w3.org/1999/xlink"><defs><path id="a" d="m52.705 17.14c-.2200011-.2800014-.5074982-.5024992-.8625-.6675s-.6974983-.2475-1.0275-.2475c-.1700008 0-.3424991.0149998-.5175.045-.1750009.0300001-.3324993.0874996-.4725.1725s-.2574995.1949993-.3525.33-.1425.3074989-.1425.5175c0 .1800009.0374996.3299994.1125.45s.1849993.2249995.33.315c.1450007.0900004.317499.1724996.5175.2475s.4249988.1524996.675.2325c.3600018.1200006.7349981.2524993 1.125.3975.390002.1450007.7449984.3374988 1.065.5775s.584999.5374982.795.8925c.2100011.3550018.315.7974973.315 1.3275 0 .610003-.1124989 1.1374978-.3375 1.5825s-.5274981.8124986-.9075 1.1025-.8149975.5049993-1.305.645c-.4900024.1400007-.9949974.21-1.515.21-.7600038 0-1.4949964-.1324987-2.205-.3975-.7100035-.2650013-1.2999976-.6424975-1.77-1.1325l1.68-1.71c.2600013.3200016.6024979.5874989 1.0275.8025s.8474979.3225 1.2675.3225c.190001 0 .3749991-.0199998.555-.06s.3374993-.1049996.4725-.195.2424996-.2099993.3225-.36c.0800004-.1500008.12-.329999.12-.54 0-.200001-.0499995-.3699993-.15-.51s-.2424991-.2674994-.4275-.3825-.4149986-.2199995-.69-.315-.5874982-.1974995-.9375-.3075c-.3400017-.1100006-.6724984-.2399993-.9975-.39-.3250016-.1500008-.6149987-.3424988-.87-.5775s-.4599992-.5199983-.615-.855-.2325-.7424976-.2325-1.2225c0-.590003.1199988-1.0949979.36-1.515s.5549981-.7649987.945-1.035c.390002-.2700014.8299976-.4674994 1.32-.5925.4900025-.1250006.9849975-.1875 1.485-.1875.600003 0 1.2124969.1099989 1.8375.33s1.1724977.5449978 1.6425.975zm14.31.51c0 .6200031-.1149988 1.1424979-.345 1.5675-.2300011.4250021-.539998.7674987-.93 1.0275-.3900019.2600013-.8399974.4499994-1.35.57-.5100025.1200006-1.0399972.18-1.59.18h-1.275v4.005h-2.565v-10.62h3.9c.5800029 0 1.1224975.0574994 1.6275.1725s.9449981.2999987 1.32.555.6699989.5899979.885 1.005.3225.9274969.3225 1.5375zm-2.565.015c0-.2500013-.0499995-.4549992-.15-.615s-.2349992-.2849996-.405-.375c-.1700009-.0900005-.3624989-.1499999-.5775-.18-.2150011-.0300002-.4374989-.045-.6675-.045h-1.125v2.505h1.08c.2400012 0 .4699989-.0199998.69-.06s.4174991-.1099995.5925-.21.3124995-.2324992.4125-.3975.15-.3724988.15-.6225zm13.41 7.335-.825-2.085h-4.11l-.78 2.085h-2.79l4.455-10.62h2.49l4.41 10.62zm-2.85-7.785-1.35 3.645h2.67zm18.66 6.315c-.4700023.5400027-1.0499965.9674984-1.74 1.2825-.6900034.3150016-1.4849955.4725-2.385.4725-.8200041 0-1.5774965-.1349986-2.2725-.405-.6950035-.2700013-1.2974974-.6524975-1.8075-1.1475-.5100025-.4950025-.9099985-1.0874965-1.2-1.7775-.2900014-.6900035-.435-1.4499959-.435-2.28 0-.8500043.1474985-1.6199965.4425-2.31.2950015-.6900034.7024974-1.2774976 1.2225-1.7625s1.1299965-.8574987 1.83-1.1175 1.454996-.39 2.265-.39c.7500038 0 1.4874964.1324987 2.2125.3975s1.3124978.6524975 1.7625 1.1625l-1.74 1.74c-.2400012-.3300017-.554998-.5749992-.945-.735-.3900019-.1600008-.7899979-.24-1.2-.24-.4500022 0-.8624981.0824992-1.2375.2475s-.6974986.3924986-.9675.6825c-.2700013.2900014-.4799992.632498-.63 1.0275-.1500007.395002-.225.8274977-.225 1.2975 0 .4800024.0749993.919998.225 1.32.1500008.400002.3574987.7424986.6225 1.0275s.5824982.5074992.9525.6675c.3700019.1600008.7749978.24 1.215.24.5100026 0 .9549981-.099999 1.335-.3s.6849989-.4599984.915-.78zm4.095 1.47v-10.62h7.14v2.175h-4.665v1.995h4.41v2.055h-4.41v2.205h4.935v2.19zm16.65-8.43v8.43h-2.565v-8.43h-3v-2.19h8.565v2.19zm7.17 8.43v-10.62h2.58v10.62zm17.4 0 .06-7.515h-.045l-2.76 7.515h-1.8l-2.685-7.515h-.045l.06 7.515h-2.415v-10.62h3.645l2.415 6.81h.06l2.31-6.81h3.705v10.62zm7.695 0v-10.62h7.14v2.175h-4.665v1.995h4.41v2.055h-4.41v2.205h4.935v2.19zm-125.6801128-20.00004511c8.2845113 0 15 6.71571431 15 15.00000001s-6.7154887 15-15 15c-8.2840601 0-14.99999998-6.7157143-14.99999998-15s6.71593988-15.00000001 14.99999998-15.00000001zm9.7684963 23.17375941c1.6290225-1.9434587 2.6880451-4.3777444 2.9233082-7.0457143h-3.8447368c-.2043609 1.6188722-.841579 3.1019549-1.7936842 4.3303759zm-22.46007523-7.0457143c.23526316 2.6679699 1.29451128 5.1022556 2.92330823 7.0457143l2.7153384-2.7153384c-.9523308-1.2281954-1.5895489-2.7115037-1.7939098-4.3303759zm2.92330823-9.3015789c-1.62879695 1.9434586-2.68804507 4.3777443-2.92330823 7.0459398h3.84473683c.2043609-1.6190977.841579-3.102406 1.7939098-4.3308271zm10.8960903 17.0206015v3.8447368c2.6681955-.2352632 5.1024812-1.2945113 7.0459398-2.9233083l-2.7151128-2.7153383c-1.2286466.9521052-2.7117293 1.5895489-4.330827 1.7939098zm-6.5860151-1.7936843-2.7153383 2.7151128c1.9434586 1.628797 4.3777443 2.6880451 7.0457143 2.9233083v-3.8447368c-1.6188722-.2043609-3.1021805-.8418046-4.330376-1.7936843zm4.330376-15.9002255v-3.84473686c-2.66797.23526316-5.1022557 1.29451128-7.0457143 2.92330826l2.7153383 2.7151128c1.2284211-.9521053 2.7117294-1.5893233 4.330376-1.7936842zm6.5864661 1.7939098 2.7151128-2.7153384c-1.9434586-1.62902255-4.3777443-2.6880451-7.0459398-2.92330826v3.84473686c1.6190977.2043609 3.1021804.8415789 4.330827 1.7939098zm7.2331579 5.9253383c-.2352631-2.6681955-1.2942857-5.1024812-2.9233082-7.0459398l-2.7151128 2.7153383c.9521052 1.2284211 1.5893233 2.7115038 1.7936842 4.3306015zm-12.6918045 7.7925564c3.6751128 0 6.6649624-2.9898496 6.6649624-6.6649624 0-3.6748872-2.9898496-6.6647369-6.6649624-6.6647369s-6.6647368 2.9898497-6.6647368 6.6647369c0 3.6751128 2.989624 6.6649624 6.6647368 6.6649624z"/><mask id="b" fill="#fff"><use fill="none" xlink:href="#a"/></mask></defs><g fill="none" fill-rule="evenodd"><path d="m0 0h175v40h-175z"/><g fill="#fff"><use xlink:href="#a"/><g mask="url(#b)"><path d="m0 0h175v40h-175z"/></g></g></g></svg>