<?xml version="1.0" encoding="UTF-8"?>
<svg width="40px" height="40px" viewBox="0 0 40 40" version="1.1" xmlns="http://www.w3.org/2000/svg" xmlns:xlink="http://www.w3.org/1999/xlink">
    <!-- Generator: Sketch 49.3 (51167) - http://www.bohemiancoding.com/sketch -->
    <title>Brand/Logo/Icon</title>
    <desc>Created with Sketch.</desc>
    <defs>
        <path d="M18.4584436,20.0531579 L21.1735564,22.7684962 C19.2303233,24.3972932 16.7960376,25.4565414 14.1278421,25.6918045 L14.1278421,21.8470677 C15.7469398,21.6427068 17.2300226,21.0052632 18.4584436,20.0531579 Z M11.8721579,0.30837594 L11.8721579,4.15288722 C10.2532857,4.35747368 8.77020301,4.99469173 7.54178195,5.94679699 L4.82644361,3.23145865 C6.76990226,1.60288722 9.20418797,0.543413534 11.8721579,0.30837594 Z M21.1735789,3.23157143 L18.4584662,5.94690977 C17.2300451,4.99480451 15.7467368,4.3573609 14.1278647,4.153 L14.1278647,0.308488722 C16.7960602,0.543526316 19.2303459,1.60277444 21.1735789,3.23157143 Z M21.8469774,11.8722707 C21.6426165,10.2531729 21.0053985,8.77009023 20.0532932,7.54166917 L22.768406,4.82633083 C24.3974286,6.76978947 25.4564511,9.20407519 25.6917143,11.8722707 L21.8469774,11.8722707 Z M21.8469774,14.1279098 L25.6917143,14.1279098 C25.4564511,16.7958797 24.3974286,19.230391 22.768406,21.1736241 L20.0532932,18.4582857 C21.0053985,17.2298647 21.6426165,15.746782 21.8469774,14.1279098 Z M4.15297744,11.8722707 L0.308240602,11.8722707 C0.543503759,9.20407519 1.60275188,6.76978947 3.23154887,4.82633083 L5.94688722,7.54144361 C4.99455639,8.77009023 4.35733835,10.2531729 4.15297744,11.8722707 Z M4.82637594,22.768406 L7.54171429,20.0532932 C8.76990977,21.0053985 10.253218,21.6426165 11.8720902,21.847203 L11.8720902,25.6917143 C9.2041203,25.4564511 6.76983459,24.397203 4.82637594,22.768406 Z M5.94690977,18.4584662 L3.23157143,21.1738045 C1.60277444,19.2303459 0.543526316,16.7958346 0.308263158,14.1278647 L4.153,14.1278647 C4.3573609,15.7469624 4.99457895,17.2300451 5.94690977,18.4584662 Z" id="path-1"></path>
    </defs>
    <g id="Brand/Logo/Icon" stroke="none" stroke-width="1" fill="none" fill-rule="evenodd">
        <rect id="#" x="0" y="0" width="175" height="40"></rect>
        <g id="Icon" transform="translate(7.000000, 7.000000)">
            <mask id="mask-2" fill="white">
                <use xlink:href="#path-1"></use>
            </mask>
            <g id="Mask"></g>
            <g id="Brand/Color/White" mask="url(#mask-2)" fill="#FFFFFF">
                <g transform="translate(-8.000000, -7.000000)" id="Color">
                    <rect x="0" y="0" width="175" height="40"></rect>
                </g>
            </g>
        </g>
    </g>
</svg>