<svg height="40" viewBox="0 0 40 40" width="40" xmlns="http://www.w3.org/2000/svg" xmlns:xlink="http://www.w3.org/1999/xlink"><mask id="a" fill="#fff"><path d="m28.3976056 30.8510121 4.1770965 4.1774437c-2.9895893 2.5058415-6.7346443 4.135454-10.8395604 4.4973973v-5.9149798c2.4909196-.3144014 4.7725853-1.2950838 6.6624639-2.7598612zm-10.1327473-30.37658758v5.91463274c-2.4905726.31474841-4.7722383 1.29508386-6.6621168 2.75986119l-4.17744364-4.17744361c2.98993634-2.5054945 6.73499134-4.13545402 10.83956044-4.49705032zm14.3098785 4.49722383-4.1770965 4.17744361c-1.8898786-1.46477733-4.1718913-2.4454598-6.6624639-2.75986119v-5.91463274c4.1049161.3615963 7.8499711 1.99120879 10.8395604 4.49705032zm1.0359977 13.29338345c-.3144014-2.4909196-1.2947368-4.7725853-2.7595141-6.6624638l4.1770965-4.17744365c2.5061886 2.98993635 4.1354541 6.73499135 4.4973974 10.83990745zm0 3.470214h5.9149798c-.3619433 4.1045691-1.9912088 7.8499711-4.4973974 10.8395604l-4.1770965-4.1774436c1.4647773-1.8898785 2.4451127-4.1715442 2.7595141-6.6621168zm-27.22153843-3.470214h-5.91497976c.36194332-4.1049161 1.99155581-7.8499711 4.49739734-10.83990745l4.17744361 4.17709655c-1.46512435 1.8902256-2.4454598 4.1718913-2.75986119 6.6628109zm1.03599768 16.7632851 4.17744365-4.1770965c1.8895315 1.4647773 4.1715442 2.4451127 6.6621168 2.7598612v5.9146327c-4.1045691-.3619433-7.8496241-1.9915558-10.83956045-4.4973974zm1.72389821-6.6306766-4.17744361 4.1774436c-2.50584153-2.9899364-4.13545402-6.7353384-4.49739734-10.8399075h5.91497976c.31440139 2.4909196 1.29473684 4.7725853 2.75986119 6.6624639z" fill="none"/></mask><g fill="none" fill-rule="evenodd"><path d="m0 0h40v40h-40z"/><g fill="#fff" fill-rule="evenodd" mask="url(#a)"><path d="m0 0h40v40h-40z"/></g></g></svg>