<?xml version="1.0" encoding="UTF-8"?>
<svg width="40px" height="40px" viewBox="0 0 40 40" version="1.1" xmlns="http://www.w3.org/2000/svg" xmlns:xlink="http://www.w3.org/1999/xlink">
    <title>spacetime-icon</title>
    <desc>Created with Sketch.</desc>
    <defs></defs>
    <g id="Page-1" stroke="none" stroke-width="1" fill="none" fill-rule="evenodd">
        <path d="M28.3976056,30.8510121 L32.5747021,35.0284558 C29.5851128,37.5342973 25.8400578,39.1639098 21.7351417,39.5258531 L21.7351417,33.6108733 C24.2260613,33.2964719 26.507727,32.3157895 28.3976056,30.8510121 Z M18.2648583,0.47442452 L18.2648583,6.38905726 C15.7742857,6.70380567 13.49262,7.68414112 11.6027415,9.14891845 L7.42529786,4.97147484 C10.4152342,2.46598034 14.1602892,0.83602082 18.2648583,0.47442452 Z M32.5747368,4.97164835 L28.3976403,9.14909196 C26.5077617,7.68431463 24.225749,6.70363216 21.7351764,6.38923077 L21.7351764,0.47459803 C25.8400925,0.83619433 29.5851475,2.46580682 32.5747368,4.97164835 Z M33.6107345,18.2650318 C33.2963331,15.7741122 32.3159977,13.4924465 30.8512204,11.602568 L35.0283169,7.42512435 C37.5345055,10.4150607 39.163771,14.1601157 39.5257143,18.2650318 L33.6107345,18.2650318 Z M33.6107345,21.7352458 L39.5257143,21.7352458 C39.163771,25.8398149 37.5345055,29.5852169 35.0283169,32.5748062 L30.8512204,28.3973626 C32.3159977,26.5074841 33.2963331,24.2258184 33.6107345,21.7352458 Z M6.38919607,18.2650318 L0.47421631,18.2650318 C0.83615963,14.1601157 2.46577212,10.4150607 4.97161365,7.42512435 L9.14905726,11.6022209 C7.68393291,13.4924465 6.70359746,15.7741122 6.38919607,18.2650318 Z M7.42519375,35.0283169 L11.6026374,30.8512204 C13.4921689,32.3159977 15.7741816,33.2963331 18.2647542,33.6110816 L18.2647542,39.5257143 C14.1601851,39.163771 10.4151301,37.5341585 7.42519375,35.0283169 Z M9.14909196,28.3976403 L4.97164835,32.5750839 C2.46580682,29.5851475 0.83619433,25.8397455 0.47425101,21.7351764 L6.38923077,21.7351764 C6.70363216,24.226096 7.68396761,26.5077617 9.14909196,28.3976403 Z" id="spacetime-icon" fill="#000000"></path>
    </g>
</svg>
